<svg id="Шар_1" data-name="Шар 1" xmlns="http://www.w3.org/2000/svg" viewBox="0 0 432.7 134.89"><defs><style>.cls-1{font-size:24.28px;font-family:MyanmarSangamMN-Bold, Myanmar Sangam MN;font-weight:700;}.cls-2{letter-spacing:-0.03em;}</style></defs><title>artistic</title><path d="M210.39,37.65c-7.07.39-14.58,3.91-21.34,6.1-5.27,1.7-10.53,3-14.31,7.35-7.23,8.26-7.46,21.5-13.17,31l-1.11-.26c.43-7.11,6.45-26.41-1.08-30.85-3.1-1.83-10-.07-13.56-1-4.64-1.16-8.49-3.34-9.07-8.61-9.81,3.33-16.85,9.13-21.3,18.5-4.22,8.89-7.38,18.63-17.22,22.51,2.2-8.51,8.9-21.94,3-29.9S85.81,48.68,78,50.83c5.15-19,26.06-2.53,32.58,5.76,3.71-4.43,7.3-9.11,11.41-13.19,4.78-4.74,9.34-4.77,15.3-7.28,6.2-2.62,7.72-5.72,14.52-2.89,5.48,2.29,10.69,6.85,15.58,10.14L184.75,0c4.47,6,1.91,12.58-.12,18.92a156.87,156.87,0,0,0-5.71,21.62c9.65-1.31,21.86-5.07,31.37-2.77Zm-52.24,5.6c-4.25-5.68-9.79-7.3-16.24-6.72C140.68,44,148,46.65,158.15,43.26Z"/><path d="M0,82C4.62,66.59,15.49,54.52,23.56,40.82,31.46,27.39,37.48,12.55,46.87,0,55.12,5.19,55.21,15.62,57,24.13c.84,4,2.38,10.83,6.3,13.08,3.24,1.87,6.88-.54,11,.6-6.44,3.71-13.06,6.31-13.49,14.53-.46,9,2.33,18,1.89,27-14.42-1.18-18-22-32.62-22.5-6.71-.24-10.52,4.25-14.09,9.26-4.44,6.22-8.87,12-15,16.51ZM46.69,12.22c-8.86,12.71-16,24.22-19.34,39.43C31.74,54,48.06,46.55,50.68,42,55.06,34.34,50.74,19.23,46.69,12.22Zm6.59,53.47c5.22-11.31-4-21.4-13-9.63Z"/><path d="M308.13,81.77c1-7.17,5.94-22.48,1.38-29-2.33-3.31-4.79-1.84-8.39-1.74-4.2.12-9.17-.63-12.56-3.39A8.94,8.94,0,0,1,292,32.19c7.4-1.93,17.7,7.33,23.52,11.15L332.89.13c4.74,5.59,1.91,12.36-.08,18.45a213.9,213.9,0,0,0-5.84,22c8-1.09,16.07-2.15,24.1-3.27,6.35-.88,12.88-3.61,14.12,4.67h-8.36l1.73-4.67c-6.63,1.09-13.33,3.9-19.73,6-5.62,1.81-11.67,3.06-15.77,7.63-3.35,3.72-4.49,8.5-5.8,13.19a69.34,69.34,0,0,1-7.76,18.27Zm-1.82-38.4c-4.18-5.84-9.78-7.46-16.39-6.76C290.06,44.28,295.62,46.63,306.31,43.36Z"/><path d="M284.72,29.7v6.42c-15-4.88-26.9,2.72-39.53,9.06,7.41,4.94,16.14,9.43,22.68,15.5,7.9,7.33,1.59,12-6,15.62-11.82,5.67-37.54,13-43.17-4.72C237.19,86,252.81,77.26,269,67.65c-5.06-3.21-32.35-15.77-28.23-24.27,2.23-4.6,13.78-7.63,18.35-9.24C267.58,31.15,275.91,30.74,284.72,29.7Z"/><path d="M414.2,54.16c-1.32-10.66-9-7.76-17.2-4.92-7.19,2.49-20.88,8.22-22,17.07C373.56,77.62,390.92,78,398.32,78.15A85.28,85.28,0,0,0,418,75.76c4.15-.91,10.88-3.85,14.67-1.12-12.63,7.17-27.69,8-41.87,6.37-9.78-1.14-27.61-3.59-21.6-17.54,4.5-10.45,18.31-16.61,28.64-19.21C406.39,42.12,432,44.51,414.2,54.16Z"/><path d="M208.95,82.07c-3.35-8.77-1.79-22.06,3.43-29.2C217.68,59.88,215.5,78.48,208.95,82.07Z"/><path d="M357,82.38c-3-10.53-1.68-20.22,3.32-29.65C365.88,59.19,363.9,77.8,357,82.38Z"/><path d="M210.3,37.77c2.5-5.65,6.47,2.45,7.49,4.29h-9.07l1.68-4.41Z"/><text class="cls-1" transform="translate(223.1 119.57)">N<tspan class="cls-2" x="15.27" y="0"> </tspan><tspan x="21.8" y="0" xml:space="preserve">A I L  D E S I G N</tspan></text></svg>