<svg id="Шар_1" data-name="Шар 1" xmlns="http://www.w3.org/2000/svg" viewBox="0 0 441.16 156.75"><defs><style>.cls-1{font-size:15.07px;font-family:PTSans-Regular, PT Sans;}</style></defs><title>CND</title><path d="M434.58,60.46c-3.57.91-6.51,3.15-10.06,3.63l-.37-.65c.7-.52,1.38-1.08,2.11-1.56s1.6-.93,2.4-1.41c1.47-.9,2.93-1.82,4.4-2.71q3.06-1.84,6.15-3.63c.49-.29,1-.47,1.82-.81,0,.8.09,1.33.09,1.85q0,17.7,0,35.4c0,8.28-5.76,14-14,14H350.73c-8.24,0-14.05-5.8-14.05-14q0-37.51,0-75c0-8.43,5.76-14.24,14.17-14.24q38.11,0,76.23,0c8.24,0,14,5.82,14,14,0,10.8,0,21.59,0,32.39a2,2,0,0,1-1.24,2.11c-4.14,1.91-8.17,4.12-12.44,5.67-1.73.63-3.33,1.6-5.3,2-2.75.5-5.26,2.34-7.88,3.6a5.23,5.23,0,0,1-.8.39c-5.24,1.49-10.47,3-15.74,4.43a73.76,73.76,0,0,1-20.66,2.82,23.48,23.48,0,0,1-11-2.57c-5.35-2.92-6.86-8-3.82-13.24a23.76,23.76,0,0,1,9-8.71c2.17-1.25,4.58-2.25,6.39-3.9,2.15-2,5-1.84,7.3-3.19a41,41,0,0,1,7.7-3,85.72,85.72,0,0,1,18-4.07,14.11,14.11,0,0,0,2-.52L411.35,28l4.81-1.39.06-.44-4-1.14,1.23-1.62c-.8-.2-1.46-.42-2.14-.52-4.55-.67-9.12-2.13-13.9.34l1.54.31,0,.22c-.42.12-.83.25-1.26.35-2.78.66-5.56,1.31-8.35,1.95a6.13,6.13,0,0,1-2.36.38c-2.55-.51-3.31,2.1-5.28,2.52l.21.59,3.41-1c.29,1.23-.51,1.48-1.28,1.65a13.45,13.45,0,0,0-2.91.52c-.63.3-1,.86-1.83.43a8.44,8.44,0,0,0-1.34-.47v-.41c-1,.5-2.07,1-3.08,1.5-1.91,1-3.86,1.91-5.69,3-5.43,3.32-10.57,7-14,12.53,1.28,1.26,1.12,2.12-.73,3.39l-.6-1.21-.44-.09a45.49,45.49,0,0,0-1.29,4.46,34.12,34.12,0,0,0-.88,6.68c.1,7.67,4.07,13,10.82,16.19a33.28,33.28,0,0,0,19.39,2.79A20.66,20.66,0,0,0,385,78.33a1.77,1.77,0,0,1,1.11-.12c2.56,1.08,4.75.33,7-1.05.75-.47,1.93-.28,2.91-.34.42,0,.87.21,1.26.13,1.52-.3,3-.66,4.54-1.05.47-.12,1.1-.28,1.32-.63.75-1.22,1.89-1.08,3-1.16a12.49,12.49,0,0,0,2.9-.61c.34-.11.54-.62.9-1.05,2.63,1,4.5-1.34,6.84-2,.1-1.23,1-.58,1.6-.7a7.44,7.44,0,0,0,2.72-.73,44,44,0,0,1,7.26-3.62,17.77,17.77,0,0,0,3.73-2A17.42,17.42,0,0,0,434.58,60.46Zm4.87-3-.25-.37c-1.13.55-2.27,1.07-3.36,1.67-.21.12-.24.57-.35.87.3.06.71.28.88.16C437.44,59,438.43,58.23,439.45,57.45Z"/><path d="M225.33,53q0-23.8,0-47.6c0-3.12,1-4.16,4.14-4.16,12.25,0,24.52-.35,36.75.08,20.38.71,36.71,9.24,47.58,26.82,11.71,18.94,8.47,43.74-7.32,59.47-11.75,11.71-26,17.18-42.48,17.25-11.6,0-23.2,0-34.8,0-2.76,0-3.88-1.14-3.88-4Q225.33,77,225.33,53Zm6.51,45.33c.5,0,.94.12,1.38.12,11,0,22.1.36,33.13.06,15.75-.42,28.9-6.65,38.79-19.08a41.65,41.65,0,0,0,3-48.09c-9.62-15.46-24-22.92-42-23.5-10.88-.35-21.79-.07-32.69-.06-.53,0-1.05.05-1.58.08Z"/><path d="M124.19,13.4v1.92q0,42.25,0,84.51a21,21,0,0,1,0,2.41,3.21,3.21,0,0,1-3.06,2.81,3.17,3.17,0,0,1-3.28-2.7,11.86,11.86,0,0,1-.1-1.8q0-47.38,0-94.75c0-.6,0-1.21.06-1.8a3,3,0,0,1,2.19-2.78,3.06,3.06,0,0,1,3.52,1c1.44,1.67,2.83,3.39,4.23,5.09l57.1,69,13.41,16.19a8,8,0,0,0,.18-1.1q0-43.16,0-86.32a8.65,8.65,0,0,1,.09-1.65A3.19,3.19,0,0,1,201.57.9a3.15,3.15,0,0,1,3.23,2.59,10.64,10.64,0,0,1,.1,1.95q0,47.68,0,95.36c0,.1,0,.2,0,.3,0,2-.68,3.21-2.14,3.76s-2.79.05-4.06-1.48L183.36,84.81l-58-70.08C125.11,14.39,124.8,14.08,124.19,13.4Z"/><path d="M59.81,100A51.26,51.26,0,0,0,96,83.63c1.51-1.59,3.39-1.73,4.81-.42s1.43,3.32-.1,4.93A57,57,0,0,1,67,105.68c-15.62,2.36-30.23-.54-43.36-9.49C9.76,86.71,1.57,73.54.17,56.7c-1.08-13,2.86-24.88,11.1-35C22.87,7.4,38.11.4,56.43,0A58.41,58.41,0,0,1,96.17,13.9a18.65,18.65,0,0,1,1.45,1.31,3.3,3.3,0,0,1,.21,4.61,3.37,3.37,0,0,1-4.62.17c-2.72-2.05-5.33-4.29-8.23-6.06C63.19.55,33.31,5.36,17.1,24.75a44,44,0,0,0,5,62C32.07,95.43,44.22,100,59.81,100Z"/><path d="M202.48,141.8c.49.23.85.38,1.2.56a4.87,4.87,0,0,1,0,8.78,9.35,9.35,0,0,1-3.45.93c-3.2.12-6.41,0-9.75,0v-19.7c3.51,0,7-.18,10.49.07a4.42,4.42,0,0,1,4.19,3.57A4.91,4.91,0,0,1,202.48,141.8Zm-9.77,8.07c2.86,0,5.58.19,8.26-.06a3.14,3.14,0,0,0,3.11-3.41,3.07,3.07,0,0,0-3.18-3c-2.68-.21-5.38-.05-8.19-.05Zm-.1-8.87c2.41,0,4.65.11,6.88,0a3.34,3.34,0,0,0,3.45-3.56c-.07-1.77-1.37-2.93-3.62-3-1.9-.09-3.8-.07-5.7,0-.35,0-1,.46-1,.73C192.57,137,192.61,139,192.61,141Z"/><path d="M78.41,131.46h2.17V152h-2l-.22-2.43c-1.78,2-3.79,3.38-6.28,2.77A9.65,9.65,0,0,1,67.67,150c-2.64-2.64-2.47-7.86.06-10.63,2.76-3,6.17-3,10.69.31ZM73.08,150.4a5.64,5.64,0,0,0,.28-11.25c-3-.07-5.23,2.23-5.26,5.54S70.25,150.37,73.08,150.4Z"/><path d="M25.38,143.27H13.93V152H11.64v-19.7h2.23v8.58H25.24v-8.58h2.22c0,.52.07,1,.08,1.58q0,8.21,0,16.42c0,1.84,0,1.84-2.16,1.7Z"/><path d="M42.34,143.5c.11-4-2.38-4.92-8.63-3.41-.92-1.56-.93-1.88.65-2.18a21.8,21.8,0,0,1,6-.42,4.46,4.46,0,0,1,4.07,4.37c.17,3.34,0,6.7,0,10.15h-2l-.16-1.43a32.86,32.86,0,0,1-3.58,1.65,5.93,5.93,0,0,1-4.93-.64,4.08,4.08,0,0,1-2.2-4,4.18,4.18,0,0,1,2.48-3.82c2.14-1,4.4-.8,6.65-.55C41.26,143.3,41.74,143.4,42.34,143.5Zm-4.15,1.12a14.87,14.87,0,0,0-2.47.57,2.65,2.65,0,0,0-.86,4.51c2.17,1.93,6.48.79,7.42-2,.65-1.89.26-2.54-1.69-2.81Z"/><path d="M223.37,145.59h-11.5a5,5,0,0,0,2.66,4.28c2.64,1.32,4.95.55,7.07-1.43l1.24,1.1c-2.23,3.64-8.31,4-11.31.65a8.29,8.29,0,0,1,.38-11.2,6.87,6.87,0,0,1,7.81-1.17A7.56,7.56,0,0,1,223.37,145.59Zm-2.27-1.73c-.32-3.1-2.16-5-4.66-4.85a4.69,4.69,0,0,0-4.39,4.85Z"/><path d="M239,152.08h-1.89l-.31-1.73a7.15,7.15,0,0,1-6.82,1.9c-2.42-.62-3.77-2.18-3.81-4.4a4.11,4.11,0,0,1,3.68-4.42,45.89,45.89,0,0,1,6.87-.07c.81-3.64-2.37-4.92-8.53-3.21l-.75-1.65c2.89-1.36,5.71-1.84,8.65-.68a4.32,4.32,0,0,1,2.88,3.91C239.08,145.12,239,148.52,239,152.08Zm-6.38-7.48a13.89,13.89,0,0,0-2.78.8,2.62,2.62,0,0,0-.48,4.3c2.06,1.82,6.22.87,7.32-1.67.83-1.94.33-2.85-1.73-3.13Z"/><path d="M144.36,145.61H132.8a4.93,4.93,0,0,0,2.45,4.16c2.66,1.45,5,.68,7.27-1.29l1.27,1.14a7.53,7.53,0,0,1-9,2.24,7.71,7.71,0,0,1-4.18-8.65c1-5.28,6.61-7.89,10.76-4.94C143.8,140,144.45,142.52,144.36,145.61ZM133,143.85h8.91a4.47,4.47,0,0,0-4.31-4.84A4.69,4.69,0,0,0,133,143.85Z"/><path d="M161.16,145.57H149.85a4.18,4.18,0,0,0,2.31,4.27c2.63,1.33,4.94.58,7.13-1.37l1.3,1.13a7.39,7.39,0,0,1-8,2.61,7.17,7.17,0,0,1-5.28-6.09c-.35-3.33.46-6.25,3.49-8.05a6.39,6.39,0,0,1,7.37.23C160.61,140,161.25,142.57,161.16,145.57Zm-2.43-1.69c0-2.94-2.07-5-4.67-4.87a4.6,4.6,0,0,0-4.24,4.87Z"/><path d="M115.86,152.06h-2.18V132.37h14.1v2H115.94v7H126.5l.1,2H115.86Z"/><path d="M62,152H59.75c0-2.77,0-5.47,0-8.16,0-3.11-1.34-4.72-4-4.72s-4.28,1.81-4.32,4.72c0,2.69,0,5.39,0,8.17H49.25V137.47h2.09l.23,2a6.26,6.26,0,0,1,5-2.34c2.93.09,5.13,1.71,5.35,4.64C62.18,145.12,62,148.53,62,152Z"/><path d="M278.89,149.49c1.44-3.69,2.84-7,4-10.42.55-1.62,1.4-2,3-1.48l-2.14,5.29-4.19,10.31c-1.45,3.55-4.52,4.46-7.76,2.69l.63-1.54c.69.14,1.3.32,1.94.39a2.72,2.72,0,0,0,2.83-3.91l-5.31-11.63c-.23-.5-.42-1-.63-1.51,2.07-.6,2.24-.5,3.05,1.36C275.78,142.43,277.28,145.8,278.89,149.49Z"/><path d="M254,137.45h2.24c0,.77,0,1.49,0,2.22q0,5.34,0,10.69c0,1.85,0,1.85-2.06,1.67a7.29,7.29,0,0,1-.17-.81c0-.29,0-.59,0-1.19-.5.45-.8.73-1.11,1a5.82,5.82,0,0,1-6.2,1,4.81,4.81,0,0,1-3.23-4.65c-.11-3.25,0-6.5,0-9.85h2.2c0,1.35,0,2.68,0,4s0,2.81,0,4.21c0,3,1.41,4.6,3.95,4.63s4.38-1.8,4.4-4.63S254,140.32,254,137.45Z"/><path d="M95.26,138.89l-.92,1.52a10.92,10.92,0,0,0-2-.86,8,8,0,0,0-3.22-.29A3,3,0,0,0,87.25,141c-.14.43.74,1.49,1.39,1.81,1.47.73,3.13,1.07,4.63,1.75,2.23,1,3.08,3.24,1.9,5.23a5.23,5.23,0,0,1-2.4,2.1c-3.09,1.2-5.85.17-8.56-1.68l1-1.33c1.69.55,3.17,1.13,4.7,1.5a2.85,2.85,0,0,0,2-.25,3.07,3.07,0,0,0,1.4-1.87,2.36,2.36,0,0,0-1.2-1.8c-1.62-.77-3.43-1.14-5.05-1.91a3.68,3.68,0,0,1-.39-6.49,6.29,6.29,0,0,1,2.07-.84A8.52,8.52,0,0,1,95.26,138.89Z"/><path d="M264.16,133.07v4.31h4.54l.09,1.92h-4.53c0,3.24-.07,6.32,0,9.4,0,1.1,1,1.6,2,1.61a19.09,19.09,0,0,0,2.3-.25c.39,1.2.13,1.92-1.24,2.22-3.3.71-5.45-.9-5.5-4.26,0-2.75,0-5.51,0-8.26,0,0,0-.08-.13-.24l-1.75-.23v-1.78l1.85-.18v-4.24Z"/><path d="M168,139.35c0,3.18,0,6.08,0,9,0,1.43,1,2,2.32,2a15.15,15.15,0,0,0,2-.27c.51,1.25.15,1.91-1.19,2.22-3.17.73-5.41-.94-5.43-4.15,0-2.85,0-5.7,0-8.6l-2-.22v-1.81l1.93-.17v-4.26H168v4.34h4.54v2Z"/><path d="M99.46,152.15v-2.92h2.43V152Z"/><path d="M176.3,149.16h2.32V152H176.3Z"/><path d="M287.82,149.21V152h-2.38v-2.81Z"/><text class="cls-1" transform="translate(307.57 105.55)">TM</text></svg>