<svg id="Шар_1" data-name="Шар 1" xmlns="http://www.w3.org/2000/svg" viewBox="0 0 439.74 156.83"><defs><style>.cls-1{font-size:37.72px;font-family:MrEavesXLModOT-Bold, Mr Eaves XL Mod OT;font-weight:700;letter-spacing:0.03em;}</style></defs><title>decleor</title><path d="M.07,106.55c0-2.2,0-3.44,0-4.68C.07,79.5.13,57.12,0,34.74c0-3.18.86-4.16,4-4,8.48.31,17,0,25.45.5,16.12,1,27.49,10.56,31.78,26.24a41.43,41.43,0,0,1-3.13,31C53,98.26,44.3,103.9,33.54,105.09S11.62,106.11.07,106.55ZM11.32,40.68V95.82c5.26,0,10.31.23,15.32,0,14.3-.76,23.53-9.41,25-23.4C53,59.13,46.6,45.06,31.88,42,25.28,40.65,18.31,41.08,11.32,40.68Z"/><path d="M397,106H385.82c-.06-1.18-.18-2.29-.18-3.39,0-22.63.06-45.26-.06-67.88,0-3.12.77-4.18,4-4.08,9.06.29,18.16-.17,27.2.4,18.77,1.18,28.75,20.26,19.38,36.71-3.79,6.65-10.15,9.25-18,10.35L439,106.08c-4.85,0-9,.06-13.14-.07-.61,0-1.34-.82-1.77-1.43-8.2-11.43-16.36-22.89-25.08-35.12a85.12,85.12,0,0,0,9.35-.06c4-.48,8.26-.83,12-2.27,6-2.32,8.66-7.63,7.83-13.77-.78-5.78-5.51-11.27-11.33-11.77-6.45-.55-13-.13-19.85-.13Z"/><path d="M338.73,29.42c14.68.61,25.34,7.46,31.89,20.67a41.06,41.06,0,0,1-6.57,46.08c-15.21,16.19-39.37,14.67-53-3-15-19.48-8.43-49.21,11.45-59.69A35.07,35.07,0,0,1,338.73,29.42Zm25.89,40.82a36,36,0,0,0-4.69-18.44c-7.5-13.4-26.13-16.4-37.24-6C311.13,56.71,309.81,75.68,319.77,88c8.24,10.19,22.53,12.49,33,4.9C360.76,87,364.12,78.57,364.62,70.24Z"/><path d="M86.81,95.83h30.46v10.31H83.33c-8.05,0-8.05,0-8.05-8.21,0-21.14.07-42.27-.06-63.41,0-3.09.91-3.88,3.9-3.84,11.48.16,23,.07,34.46.07h3.67V40.92H86.9V63h30.4V73.32H86.81Z"/><path d="M261.84,73.28V95.84h30.73V105.9h-41.8c-.06-1.26-.16-2.37-.16-3.49,0-22.51.06-45-.08-67.52,0-3.29.85-4.28,4.2-4.22,11.25.21,22.5.09,33.76.09h4V40.95H261.86v22.1h10c6,0,11.94.07,17.91,0,2.17,0,3,.58,3,2.91.08,7.36.17,7.36-7.14,7.36H261.84Z"/><path d="M194.5,50.28c-3.61,0-6.94.07-10.25-.05a3.45,3.45,0,0,1-2.29-1.1c-14-17.18-36.26-9.3-42.45,8.53-4.47,12.88,0,28.15,10.86,35.5,8.68,5.89,19.31,5.85,26.94-1.41,4.09-3.9,8.15-4.87,13.2-4.43,1.12.1,2.26,0,3.88,0-4.5,9.11-11.15,15.16-20.32,18.23-20.85,7-39.62-6.62-44.78-25.65-3.88-14.32-1.46-27.33,8.38-38.81,11.82-13.8,33.53-15.57,47.53-3.68C190,41.45,193.35,46,194.5,50.28Z"/><path d="M203.29,105.9c0-3.94,0-7.61,0-11.27,0-20,.06-40-.06-60,0-2.9.56-4,3.74-4,7.53.16,7.54,0,7.54,7.69q0,26.71,0,53.41c0,1.23,0,2.46,0,4h30.72V105.9Z"/><path d="M237.41,16.89c1.49.34,2.58.5,3.61.85,3.61,1.2,6.31.3,8.54-2.93C255.1,6.74,262.49,1.17,272.46.21A58.48,58.48,0,0,1,286.82.8c7.9,1.22,15.71,3.09,24.06.73-10,15.19-38.56,24-61.18,18.69C260.77,13,272,8.31,285.32,8.24c-9.63-3.37-21.1-1.16-29.88,5.38a75.22,75.22,0,0,1-8.7,6c-2.21,1.2-4.88,1.54-7.5,2.3Z"/><path d="M119.56,135.82v3.37H.39v-3.37Z"/><path d="M439.1,135.81v3.37H319.62v-3.37Z"/><text class="cls-1" transform="translate(138.07 149.28)"><tspan xml:space="preserve">P  A  R  I  S</tspan></text></svg>