<svg id="Шар_1" data-name="Шар 1" xmlns="http://www.w3.org/2000/svg" viewBox="0 0 422.14 237.9"><title>gerards</title><path d="M218.19,73.57c-1.67.91-3.19,1.82-4.78,2.6-4.72,2.31-9.72,3.39-14.84,2-9.17-2.58-13.46-8.81-12.29-18.38.91-7.42,4.22-13.93,7.75-20.34,5.89-10.71,14.22-19.32,23.36-27.25,4.55-3.95,9.25-7.7,14.72-10.33A14.76,14.76,0,0,1,239.32,0a5.24,5.24,0,0,1,4.21,2.15,1.53,1.53,0,0,1-.2,2.32c-5.54,5.94-11.23,11.78-16.44,18a123.4,123.4,0,0,0-18.42,28.85c-1.71,3.84-3.3,7.72-3,12,.2,2.66,1,5.07,3.72,6.18,2.91,1.18,5.49.36,7.69-1.71,2.68-2.52,3.85-5.8,4.52-9.31.1-.52.16-1,.22-1.57.34-3,.91-3.52,3.94-3.44,7.89.2,12.8,5.28,12.88,13.45A68.48,68.48,0,0,1,232,96.45,71.21,71.21,0,0,1,202.31,129a18.38,18.38,0,0,1-7.5,2.34c-4.2.43-8.38,1.13-12.57,1.69a4.23,4.23,0,0,1-1.71-.08c-.44-.13-1.13-.55-1.12-.83a1.91,1.91,0,0,1,.75-1.43c9.33-5.41,16.74-13,23.08-21.49a81.7,81.7,0,0,0,14.84-34.54C218.14,74.32,218.15,74,218.19,73.57Z"/><path d="M77.88,149.24l-3.39,15.84c-.33-.7-.5-1.12-.72-1.5-2-3.43-3.69-7.14-6.13-10.23-6.48-8.2-16-10.69-26.37-7.33-8,2.58-14.19,7.63-19.29,14.09a63.58,63.58,0,0,0-14,41.79,36.37,36.37,0,0,0,4.24,16.91c4.7,8.61,12.06,12.94,21.76,13.37,8,.35,15.12-2.29,21.8-6.41a2.12,2.12,0,0,0,.82-1.24c1.92-8.58,3.79-17.17,5.71-25.75a5,5,0,0,0-1.72-5.39H73.66c-4.7,4-4.94,9.83-6.21,15.17C66,214.77,64.69,221,63.28,227.28a2.65,2.65,0,0,1-.85,1.56c-11.59,7.59-24.07,11.27-37.81,7.53C12.89,233.16,5.69,225,2.15,213.59c-3.26-10.53-2.53-21.12.29-31.6,3.46-12.85,9.88-24,20.12-32.65C30.18,142.89,38.9,139.12,49,139a29.77,29.77,0,0,1,20.85,7.77c.5.45,1,.86,1.54,1.31,1.86,1.68,3.83,2.69,6.27.74Z"/><path d="M345.45,173.21c.71-3,1.39-5.92,2.06-8.8,1.27-5.48,2.55-11,3.78-16.44.83-3.72.72-4.16-1.29-6.88h9.27c-.43,2-.84,4-1.28,6-4.15,18.72-8.36,37.42-12.45,56.15a108.1,108.1,0,0,0-2.84,20.25,22.09,22.09,0,0,0,2,9.94c.33.73.64,1.47,1,2.39-2.51,0-4.81,0-7.11-.05-.36,0-.85-.65-1-1.1a28.26,28.26,0,0,1-.81-14.8,3.23,3.23,0,0,0-.05-1.68l-.65,1.14c-3.21,5.74-7.14,10.87-12.76,14.47-6.35,4.07-13.19,5.38-20.36,2.59s-11-8.58-12.47-15.85c-1.74-8.37-.52-16.57,2.28-24.55,3.52-10,9.18-18.61,17.83-25,5.16-3.8,10.87-6.14,17.41-6,6.69.19,12.56,2.2,16.85,7.68A4.63,4.63,0,0,0,345.45,173.21Zm-49.21,38.5c0,5.71.7,9.65,2.61,13.32,3.4,6.5,9.63,9.23,16.73,7.33a23,23,0,0,0,10.92-7c4.76-5.12,7.88-11.23,10.45-17.65,3.53-8.8,5.12-18.1,7-27.33a3.06,3.06,0,0,0-.79-3c-4.27-4.75-9.2-8.08-15.93-7.54a23.53,23.53,0,0,0-13.37,5.61C302.1,185.36,297.14,198.4,296.24,211.71Z"/><path d="M236,174.26c.48-2.25.94-4.2,1.29-6.17.15-.81.44-1.14,1.3-1.11,1.77.06,3.54,0,5.46,0-.77,3.55-1.52,6.92-2.22,10.3-2.74,13.12-5.51,26.23-8.16,39.37-1.15,5.7-1.57,11.44.44,17.09l.74,2.06c-2.21,0-4.27,0-6.32,0-.34,0-.79-.62-1-1.05a20.54,20.54,0,0,1-1.3-8.63c.13-2.78.39-5.56.4-8.47-.25.45-.51.9-.76,1.36-3.24,5.94-7.16,11.34-13,15-7,4.43-14.5,5.31-22.1,1.64-6.19-3-9.33-8.45-10.68-14.95-2.23-10.82.06-21,4.75-30.77,4.15-8.62,9.85-16,18.23-20.9,7.58-4.46,15.54-5.33,23.78-2a21.08,21.08,0,0,1,7.81,5.8ZM185.7,214a62.21,62.21,0,0,0,.79,6.25c1.22,5.57,4,10.06,9.7,11.93s10.84.61,15.55-2.82,8.2-8.33,11.13-13.47c6.38-11.19,9.27-23.53,11.87-36a1.56,1.56,0,0,0-.23-1.17c-4.31-5.13-9.48-8.79-16.46-8.85s-12.45,3.06-17.18,7.71C190.84,187.44,186.38,199.67,185.7,214Z"/><path d="M84.42,207.74c-.67,6.89.29,13.19,4.63,18.57,5.81,7.21,16.29,8.75,25,3.82,4.37-2.47,7.89-6,11.37-9.5a5.38,5.38,0,0,0,.56-.83l.33.19a6.89,6.89,0,0,1-.09,1,45.8,45.8,0,0,0-1.29,5.61c-.33,3.22-2.18,5.06-4.81,6.61-7.69,4.52-15.89,5.86-24.44,3.5C85.82,234,80.36,227,78.45,217.19,76,204.51,79.7,193.2,87,182.92c5.46-7.71,12.38-13.67,21.58-16.57a26.44,26.44,0,0,1,14.79-.52c11.82,3,15,13.46,10.18,22.92-2.58,5-6.73,8.61-11.51,11.46a54,54,0,0,1-24.15,7.47C93.47,208,89,207.74,84.42,207.74Zm.52-4.9.53.45c3-.16,6-.22,9-.49A65.3,65.3,0,0,0,115.17,198c4.37-1.92,8.32-4.42,11.12-8.43a14.93,14.93,0,0,0,2.86-9.63c-.36-5.77-4.8-9.69-11-10a22.1,22.1,0,0,0-14.18,4.4c-7.49,5.28-12.57,12.5-16.26,20.74C86.53,197.53,85.83,200.23,84.94,202.84Z"/><path d="M368.73,232.07,373,219.64c1.16,1.45,2.14,2.72,3.17,4,3.37,4.06,7.15,7.71,12.51,8.79,7.2,1.44,14,.51,19.71-4.63,4.9-4.43,6.36-14.44-1.21-19.47-3.34-2.22-7.06-3.88-10.61-5.79s-7.33-3.65-10.74-5.87c-10.09-6.56-8.41-17.28-2.81-23.54s12.79-8.4,20.93-8A31.9,31.9,0,0,1,415.26,168c2.27,1,4.45,1.62,6.88,0l-3.27,12.3c-.59-1-1.11-1.67-1.51-2.44-5.76-10.85-22.72-9.88-29-2.36a12.33,12.33,0,0,0-3.17,7,8.85,8.85,0,0,0,4.77,8.88c3.58,2.05,7.32,3.83,11,5.66,4,2,8,3.84,11.37,6.76,10.12,8.65,7.25,20.38.74,26.8-6,5.88-13.3,7.8-21.46,7.07a31.18,31.18,0,0,1-12.8-4.13c-3.15-1.81-6.32-2.87-9.9-1.07Z"/><path d="M259.42,167.07H269l-3.43,15.36.29.14c.3-.45.61-.89.9-1.35,3-4.66,6.25-9,10.8-12.28s9.63-4.73,15.26-3.41a8.66,8.66,0,0,1,1.89.69c2.8,1.4,3.14,2.16,2.41,5.13-.43,1.72-.87,3.45-1.31,5.17,0,.08-.12.14-.25.29-.61-.93-1.19-1.85-1.82-2.74-2.16-3-4.66-4-8.28-3.14-5.81,1.36-10.15,4.93-13.82,9.41-5.62,6.86-8.67,14.92-10.59,23.45s-3.69,17.1-5.52,25.65c-.48,2.24-.6,4.41,1.56,6.29H244.4c4.66-3.87,5-9.46,6.14-14.62,3.52-15.51,6.89-31.06,10.31-46.59.13-.61.25-1.23.38-1.84A5.12,5.12,0,0,0,259.42,167.07Z"/><path d="M149.83,167.07h9.46l-3.44,15.42.24.12c.37-.53.75-1.06,1.1-1.6,3-4.66,6.31-9,10.87-12.21a18.3,18.3,0,0,1,13.89-3.51,11.28,11.28,0,0,1,3.14,1c2.7,1.33,3,2.18,2.31,5.07-.45,1.81-.89,3.63-1.39,5.69-.68-1-1.23-1.92-1.82-2.77-2.27-3.26-4.73-4.23-8.6-3.3-5.49,1.31-9.64,4.66-13.2,8.84a49.93,49.93,0,0,0-10.27,21.07c-2.3,9.57-4.27,19.23-6.36,28.85-.46,2.13-.41,4.21,1.62,6H134.75c5.11-4.51,5.21-10.86,6.54-16.64,3.39-14.65,6.54-29.36,9.77-44,.23-1,.38-2.08.6-3.11C152.08,170,151.36,168.5,149.83,167.07Z"/><path d="M368.64,162.31l-1.56-3c4.73-2.36,8.93-5.17,11-10.38-.16,0-.32-.11-.48-.14-2.93-.64-3.87-1.55-3.91-3.77-.06-2.88,1.41-5,3.88-5.72,3.52-1,6.32,1.31,6.45,5.3a14.25,14.25,0,0,1-2.69,8.53c-3,4.38-6.69,7.8-12,9.13A6,6,0,0,1,368.64,162.31Z"/></svg>