<svg id="Шар_1" data-name="Шар 1" xmlns="http://www.w3.org/2000/svg" viewBox="0 0 325.46 254.63"><defs><style>.cls-1{font-size:61.95px;font-family:Roboto-Regular, Roboto;}</style></defs><title>masura</title><g id="bfiIB0"><path d="M303.72.17V34.3H261.27l60.42,146.48c-16.25,0-31.61.19-46.95-.26-1.77-.05-4.07-3.33-5.05-5.59-14.56-33.27-28.91-66.63-43.36-99.94-4.13-9.52-8.7-18.86-12.54-28.48-3.36-8.4-9.28-12.08-18.06-11.9-4.1.09-8.21,0-13.5,0L242,181.05c-16.48,0-32,.16-47.46-.25-1.53,0-3.49-3.36-4.37-5.52Q165.78,115.9,141.66,56.42c-1-2.4-2.1-4.75-3.17-7.11-4.58-10.08-10.95-16.25-23.5-14.95-11.74,1.22-23.7.26-36.21.26V180.55H6.45V151.41c5.61,0,11,.12,16.39,0,8.4-.22,10.32-2,10.74-10.35.31-6.27.14-12.57.14-18.85q0-39.66,0-79.33V35.17H4.39V.23H12C52.3.23,92.62.62,132.93,0c13.6-.21,24.47,4,33.92,13.22,3.65,3.57,7.48,7,12.46,11.59V.84c17.63,0,34.48-.46,51.29.22,6.73.27,12.64,4.11,16.72,10.07,2.91,4.25,6.14,8.28,10.37,13.93V.17Z"/></g><text class="cls-1" transform="translate(0 237.84) scale(1.3 1)">MASURA</text></svg>