<svg id="Шар_1" data-name="Шар 1" xmlns="http://www.w3.org/2000/svg" viewBox="0 0 445.29 165.51"><title>Cirita logo</title><path d="M445.1,94.84c-.6,0-1.3-.1-1.9-.1H427.8c-2.6-6.3-5.2-12.5-7.8-18.8H383.3c-2.6,6.2-5.2,12.4-7.7,18.6H358.1c12.31-30.6,24.41-60.9,36.62-91.29h13.9c1.5,3.6,2.9,7.3,4.4,10.9q9.45,23.7,19,47.4c4.1,10.2,8.2,20.4,12.39,30.6a15.38,15.38,0,0,1,.8,1.9A2.82,2.82,0,0,0,445.1,94.84ZM414.4,60.94c-4.3-10.7-8.5-21.2-12.89-32.1-4.4,10.9-8.7,21.4-13,32.1Z" transform="translate(0.09 0)"/><path d="M0,45.06c.3-1.9.7-3.8,1-5.7,1.6-8.7,4.8-16.7,10.6-23.4,6.7-7.7,14.7-13.1,24.6-15,13.5-2.6,25.8,0,36.7,8.61a31.5,31.5,0,0,1,9.3,12.9c1,2.3,1.7,4.7,2.5,7.1.2.7.3,1.4.5,2.2-5.2.1-10.4.1-15.6.2-.8,0-1.1-.6-1.3-1.2a24.58,24.58,0,0,0-4-7.7,22.69,22.69,0,0,0-18-8.8,26.87,26.87,0,0,0-18.2,6.2,26.48,26.48,0,0,0-6.7,8.9,44.39,44.39,0,0,0-5,17.9,42.52,42.52,0,0,0,4.4,21.9,24.47,24.47,0,0,0,5.6,7.1,27.39,27.39,0,0,0,15.4,7.3c6.9.7,13.3-.5,18.8-5a22.41,22.41,0,0,0,7.5-10.9c.6-1.7.6-1.7,2.3-1.7H83.6a14.93,14.93,0,0,1,1.7.2c-.8,2.6-1.5,5-2.4,7.4-2.6,6.6-6.4,12.4-12.3,16.5a42.86,42.86,0,0,1-20,7.5c-10.5,1.4-20.2-1-29.2-6.51-6.6-4-11.5-9.8-15.2-16.5A50,50,0,0,1,.5,55.76c-.1-1-.4-1.9-.6-2.9C0,50.26,0,47.66,0,45.06Z" transform="translate(0.09 0)"/><path d="M272.78,165.41c-1.5-.4-2.9-.9-4.4-1.3a9,9,0,0,1-6-8.7,32.67,32.67,0,0,1,5.4-.1c.2.2.2.2.2.3.8,3.7,3.4,4.8,6.8,4.8a10.93,10.93,0,0,0,5-1,3.44,3.44,0,0,0,1.9-3.4,3,3,0,0,0-2.1-2.9c-1.4-.5-3-.9-4.4-1.3-1.9-.5-3.8-.9-5.7-1.4a8.8,8.8,0,0,1-1.5-.5c-3.7-1.6-5.2-3.8-5.2-7.9a8.59,8.59,0,0,1,5.6-8.1,17.17,17.17,0,0,1,11.4-.3,9.25,9.25,0,0,1,6.6,7.7v.7c0,.1-.1.2-.2.4h-5.4c-.1-.4-.2-.7-.3-1.1a4.35,4.35,0,0,0-2.7-2.9,9.38,9.38,0,0,0-6.6-.1,5.58,5.58,0,0,0-2,1.4,3.22,3.22,0,0,0,1.5,5.1c1.5.5,3.1.8,4.7,1.3,2.2.6,4.4,1.1,6.6,1.8,3,.8,5.1,2.6,5.6,5.8.5,3.6-.3,7-3.4,9.2a20,20,0,0,1-4.2,1.9,11.76,11.76,0,0,1-2,.7C276.18,165.41,274.48,165.41,272.78,165.41Z" transform="translate(0.09 0)"/><path d="M199.9,56.4V94.8c-5.5.1-10.9,0-16.4,0l0-91.5c.6,0,1.1-.1,1.6-.1,14.1,0,28.3-.19,42.4.11A25.31,25.31,0,0,1,252,22.91c2.9,12-2,23.5-13.51,29.4-2.1,1.1-4.2,1.8-6.5,2.8,7.7,13.1,15.39,26.3,23.29,39.7a7.6,7.6,0,0,1-1.4.1h-15a2.09,2.09,0,0,1-2.1-1.2c-6.6-11.3-13.2-22.6-19.89-33.9a7.46,7.46,0,0,1-.7-1.2c-.7-1.9-2-2.3-3.9-2.2-3.4.2-6.8,0-10.2,0Zm.1-15.2a4.48,4.48,0,0,0,1.1.1h23.8a9,9,0,0,0,6.7-2.9,11.25,11.25,0,0,0,3.3-10.4c-1-6.2-5.3-10-11.5-10h-21.5c-.6,0-1.3.1-2,.1C200,25.9,200,33.4,200,41.2Z" transform="translate(0.09 0)"/><path d="M112.3,75.88c-2.6,6.3-5.2,12.5-7.8,18.8H87.4l-.1-.1c0-.1-.1-.1-.1-.2a4.33,4.33,0,0,1,.1-.5q18.16-45.3,36.32-90.69h13.9c12.19,30.5,24.39,60.9,36.68,91.61H158a1.58,1.58,0,0,1-1.8-1.2c-2.2-5.6-4.6-11.1-6.9-16.7a9.25,9.25,0,0,0-.5-1Zm5.4-15.1c3.3.4,24.6.3,25.8-.2-4.2-10.5-8.4-20.9-12.59-31.4h-.4C126.21,39.78,122,50.18,117.7,60.78Z" transform="translate(0.09 0)"/><path d="M341.2,94.62H324.5V18.22h-24.7V3.42h67.5v14.7c-4.3.2-8.6.1-13,.1h-13.1c-.2,2.4,0,4.7-.1,7v62.6C341.2,89.82,341.2,92.12,341.2,94.62Z" transform="translate(0.09 0)"/><path d="M286,94.81H270.7l0-91.5H286Z" transform="translate(0.09 0)"/><path d="M232.79,151c2.6,4.5,5.2,8.8,7.9,13.5a35.5,35.5,0,0,1-5.7-.1c-.4,0-.9-.7-1.2-1.2-2-3.3-3.9-6.6-5.8-9.8-.4-.6-.8-1.2-1.2-1.9h-4.9v12.9h-5.7v-31a3.75,3.75,0,0,1,1-.1h13.2a8.79,8.79,0,0,1,8.9,6.6,8.56,8.56,0,0,1-4.5,10.2C234.39,150.3,233.69,150.6,232.79,151Zm-10.7-12.6v7.8c2.9,0,5.7.1,8.5,0,2-.1,3.2-1.7,3.2-3.8a3.69,3.69,0,0,0-3.4-3.9C227.69,138.3,224.89,138.4,222.09,138.4Z" transform="translate(0.09 0)"/><path d="M186.78,164.39h-6c4.2-10.5,8.4-20.9,12.51-31.2H198c4.1,10.3,8.3,20.6,12.49,31.2a33.66,33.66,0,0,1-5.5,0c-.3,0-.7-.5-.9-.9-.7-1.5-1.3-3-1.9-4.4-.2-.5-.4-1-1.1-1h-11.8C188.48,160.29,187.58,162.29,186.78,164.39Zm4.5-11.6H200c-1.4-3.6-2.8-6.9-4.2-10.3a.76.76,0,0,0-.4.1C194.09,145.8,192.79,149.09,191.29,152.79Z" transform="translate(0.09 0)"/><path d="M163.58,164.39H158v-31.1a4.87,4.87,0,0,1,1.2-.1c4.2,0,8.5-.1,12.7,0,3.4.1,6.3,1.3,8.1,4.4a9.13,9.13,0,0,1-6.5,13.7,41,41,0,0,1-6.1.2h-3.8V158C163.58,160,163.58,162.09,163.58,164.39Zm.1-18.2c3,0,5.9.1,8.8,0,1.9-.1,3.1-2,3-4a3.67,3.67,0,0,0-3.6-3.7c-1.4-.1-2.9,0-4.3,0h-3.9Z" transform="translate(0.09 0)"/><path d="M253.78,164.41h-5.1v-31.1h5C254,134.51,254.08,161.41,253.78,164.41Z" transform="translate(0.09 0)"/></svg>