<svg id="Шар_1" data-name="Шар 1" xmlns="http://www.w3.org/2000/svg" viewBox="0 0 390.99 92.87"><defs><style>.cls-1{font-size:14.39px;font-family:MyanmarSangamMN-Bold, Myanmar Sangam MN;font-weight:700;}</style></defs><title>gehwol</title><g id="jjysoj.tif"><path d="M391,91.25H345.1V14.17h21.65l.5,3.18c9.13-.88,14.5,2.75,14.51,9.65s-5.12,10.3-14.6,9.65c-.05.76-.16,1.52-.16,2.29,0,11.75,0,23.5-.05,35.25,0,2.09.57,2.78,2.7,2.74,7.11-.13,14.23-.06,21.34-.07Zm-19.48-55.5a8.88,8.88,0,0,0,8.83-8.85,8.81,8.81,0,0,0-17.61.21A8.81,8.81,0,0,0,371.51,35.75Z"/><path d="M186.55,14H199c2.24,0,4.49.16,6.71,0s2.87.7,3.31,2.67c2.49,11.14,5.09,22.26,7.66,33.39a6,6,0,0,0,1.14,2.58c.28-.76.6-1.51.85-2.29,1.41-4.49,2.88-9,4.16-13.51a9.5,9.5,0,0,0,.16-4.17c-.58-3.14-1.51-6.21-2.1-9.34a2.38,2.38,0,0,1,1-2.05c5.38-1.46,10.81-2.75,16.45-4.15l9.2,35.4.62,0c.21-.72.46-1.44.63-2.17,3.43-14.45,6.9-28.9,10.22-43.37a3.52,3.52,0,0,1,3.2-3.13c5.38-1.12,10.7-2.47,16.32-3.79a13.32,13.32,0,0,1-.12,1.85q-10,43.31-19.9,86.62c-.47,2.06-1.23,2.88-3.46,2.8-5.19-.18-10.39-.14-15.58,0-1.8,0-2.48-.58-2.85-2.3-1.69-8-3.5-15.91-5.28-23.86-.13-.6-.36-1.18-.74-2.43-.41,1.32-.66,2-.84,2.72-2,7.82-4,15.63-5.87,23.47-.43,1.78-1.18,2.46-3.08,2.4-4.39-.14-8.8-.19-13.19,0-2.29.1-3.17-.65-3.68-2.87-3.92-17-8-33.89-12-50.83q-2.46-10.37-4.92-20.74C186.88,16,186.76,15.16,186.55,14Z"/><path d="M181.16,91.07H158.94c0-.95,0-1.87,0-2.79,0-8.95-.08-17.9.05-26.85,0-2.36-.71-3-3-2.88-3.5.18-7,0-10.75,0-.06,1.23-.16,2.24-.16,3.25,0,8.87-.07,17.74,0,26.61,0,2.2-.64,2.88-2.85,2.82-5.75-.15-11.51-.11-17.26,0-1.75,0-2.36-.49-2.36-2.3q.07-36.32,0-72.63c0-1.72.42-2.4,2.28-2.37q8.87.16,17.74,0c1.93,0,2.45.64,2.43,2.47-.07,8,0,16-.06,24,0,1.94.52,2.73,2.56,2.62a81,81,0,0,1,8.63,0c2.06.11,2.78-.49,2.74-2.66-.13-7.83,0-15.66,0-23.49V14.15h22.22Z"/><path d="M340.27,55.69a41.06,41.06,0,0,1-10.64,26.7C315.81,97.57,292.78,96.07,281.27,79c-9.15-13.55-9.71-28.42-5.32-43.68a34.09,34.09,0,0,1,13.11-18.7c14.11-10.11,32.62-6.85,43,7.48C337.64,31.86,340.27,40.74,340.27,55.69Zm-22.52-3.8a115.57,115.57,0,0,0-.65-11.55c-.43-4.45-1.05-8.92-3.58-12.78-3.37-5.15-9.88-5.11-13,.19a23.62,23.62,0,0,0-2.69,7.1,95.47,95.47,0,0,0-.73,30.5,30.39,30.39,0,0,0,3.42,10.81c2.72,4.91,9.4,4.9,12.59.27a14.8,14.8,0,0,0,2.54-5.86c.79-4.85,1.59-9.75,1.92-14.66C317.7,54.57,317.74,53.23,317.74,51.88Z"/><path d="M62.3,24.06c-4.64-.74-9.07-1.91-13.54-2.06-9.86-.33-17.07,4.52-22.07,12.78-6.82,11.25-5.89,28.31,2,38.8,2.67,3.53,6.07,5.84,10.68,6,1.68.07,2.45-.39,2.42-2.27-.1-5.83-.08-11.67,0-17.51,0-1.57-.53-2.14-2.07-2.09-2.53.08-5.07,0-7.74,0V44.92H62.24c0,.75.1,1.51.1,2.28,0,12.87,0,25.74,0,38.61a3,3,0,0,1-2.23,3.35c-6.72,2.67-13.75,3.46-20.89,3.68S25.37,92.16,19,89C8.53,84,3,75.23.84,64.06c-3.52-18.17,4.25-36.88,20-46.37,12.46-7.53,26-8.62,40-5a2.58,2.58,0,0,1,1.41,1.93C62.38,17.84,62.3,21.12,62.3,24.06Z"/><path d="M116.09,14.15c0,3.34,0,6.37,0,9.4,0,.63-.07,1.26-.12,2.24H91.22v19h21.34V58c-.91,0-1.76.13-2.61.13-5.43,0-10.87.05-16.3,0-1.61,0-2.27.42-2.24,2.15.09,5.59.1,11.19,0,16.78,0,1.91.77,2.24,2.43,2.23,7,0,13.9,0,20.86.06h2.71V91H69.8V14.15Z"/></g><text class="cls-1" transform="translate(367.51 31.96)">R</text></svg>