<svg id="Шар_1" data-name="Шар 1" xmlns="http://www.w3.org/2000/svg" viewBox="0 0 442.95 137.77"><title>kerastase</title><path d="M0,0C1.52.13,3,.35,4.57.35S7.75.17,9.34.07L10.24,0V.89q0,19.17,0,38.34c0,1.05.3,1.31,1.24.84a8.28,8.28,0,0,0,2.29-1.59c2.82-2.95,5.64-5.91,8.33-9C30.59,19.85,39,10.13,47.48.45a1.11,1.11,0,0,1,.8-.4,28.21,28.21,0,0,0,8.42,0A2.31,2.31,0,0,1,57,0C50.91,6.59,44.82,13,38.78,19.55s-12,13-18,19.61c.79,1,1.5,1.92,2.21,2.82,8.61,10.82,17.27,21.59,25.81,32.46,3.3,4.2,6.34,8.62,9.48,12.95a3.88,3.88,0,0,1,.32,1c-1.09-.08-2-.12-3-.22a50.32,50.32,0,0,0-9.54.18.66.66,0,0,1-.75-.34c-4.44-7.45-9.93-14.14-15.19-21Q21.32,55.48,12.47,44.06a4.17,4.17,0,0,0-1.55-1c-.41-.19-.73,0-.68.52,0,.15,0,.31,0,.46q0,21.69,0,43.38v.93A32.93,32.93,0,0,0,0,88.36Z"/><path d="M290.61,137.77l-1.34-.24a11.39,11.39,0,0,1-5.13-2.33.7.7,0,0,1-.25-.56c.3-1.38.63-2.75,1-4.2.35-.17.52.12.72.47a8.33,8.33,0,0,0,7.86,4.73c5.72-.12,7.72-5.38,6.67-9.1a6,6,0,0,0-3.42-3.77c-2-1-4-1.79-6-2.71a17.44,17.44,0,0,1-2.33-1.31c-2.84-1.9-3.89-4.65-3.71-8,.26-4.72,3.57-7.92,8.41-8.67a13.35,13.35,0,0,1,7.28.65,26.54,26.54,0,0,1,2.49,1.33c-.42,1.46-.8,2.77-1.2,4.07,0,.13-.22.3-.32.3a.62.62,0,0,1-.45-.25c-.23-.39-.39-.83-.61-1.23a5.83,5.83,0,0,0-6.23-3.14,6,6,0,0,0-5.29,4.66,5.88,5.88,0,0,0,2.59,6.61,51.56,51.56,0,0,0,5,2.45c1.26.6,2.57,1.1,3.78,1.78a7.73,7.73,0,0,1,4.16,7.77,11,11,0,0,1-9.39,10.4l-1.41.25Z"/><path d="M131.89,55.3,155.51,88.2c-1.38-.08-2.75-.23-4.11-.22-1.74,0-3.49.11-5.23.22a.91.91,0,0,1-.95-.46C140.1,80.17,135,72.58,129.79,65.06c-2.11-3-4.48-5.92-6.75-8.86a.81.81,0,0,0-.51-.33c-1,0-2,0-3,0v32.2h-7.69V22c.24,0,.47,0,.7,0,6.12,0,12.23,0,18.35,0a29.69,29.69,0,0,1,10.3,1.59,11.93,11.93,0,0,1,8.28,10.26,17.32,17.32,0,0,1-2.62,12.46,18.8,18.8,0,0,1-8.5,6.74C136.29,53.9,134.12,54.52,131.89,55.3Zm-12.34-3.17a1.43,1.43,0,0,0,.23.06,37.76,37.76,0,0,0,10.76-.46c4.5-1,8-3.35,10-7.62A15.43,15.43,0,0,0,141.48,34a10,10,0,0,0-7.2-7.84,18.86,18.86,0,0,0-5.82-.8c-3,0-5.92.09-8.91.14Z"/><path d="M358.87,88.07h-9.16c-.35-1.08-.72-2.32-1.15-3.55q-3.85-10.92-7.7-21.84a.83.83,0,0,0-.95-.64q-10.35,0-20.71,0a.86.86,0,0,0-1,.69c-2.86,8-5.76,16-8,24.15l-.33,1.18h-6.27l2.4-6,19.88-49.48c1.54-3.83,3.08-7.65,4.61-11.48a.81.81,0,0,1,.9-.61c1.4,0,1.4,0,1.91,1.33l25.39,65.73ZM329.63,33.26l-9.46,24.66h19.08Z"/><path d="M213.92,88.07h-9.14c-.46-1.42-.93-3-1.47-4.51-2.46-7-5-13.93-7.41-20.89A.79.79,0,0,0,195,62q-10.35,0-20.71,0a.9.9,0,0,0-1,.72c-3,8.34-6,16.66-8.31,25.22,0,.06-.05.12,0,.09H158.7c0-.07.07-.24.13-.41l22.46-55.9c1.41-3.52,2.84-7,4.23-10.56a.88.88,0,0,1,1-.68c1.32,0,1.33,0,1.79,1.21l25.41,65.78C213.8,87.72,213.87,87.92,213.92,88.07ZM175.23,57.95h19.1l-9.56-24.49h-.15Z"/><path d="M419.38,83.49c4-.12,7.94-.23,11.89-.37a73,73,0,0,0,11.69-1v5.76H411.68V22h30.76v5.73c-7.57-1.56-15.3-1-23.06-1.25V50.85c7.06-.1,14.11.29,21.06-.56v5.35c-6.93-.84-14-.42-21.06-.54Z"/><path d="M68.2,87.88V22H99v5.76a54.46,54.46,0,0,0-11.45-1.13c-3.86,0-7.72,0-11.62,0V50.85c7.08-.09,14.14.29,21.17-.57-.08,1-.2,1.82-.19,2.67s.13,1.7.22,2.7c-7-.85-14.11-.44-21.2-.55V83.35c4,.16,7.92,0,11.88-.21a78.63,78.63,0,0,0,11.72-1v5.76Z"/><path d="M221,75.17c.6-.18.92,0,1.21.56a23.33,23.33,0,0,0,4.51,6,12.88,12.88,0,0,0,13.89,2.43c3.7-1.76,5.79-4.87,6.87-8.71a15.77,15.77,0,0,0,.36-7,11.43,11.43,0,0,0-5-7.57,42.25,42.25,0,0,0-7.66-4,40.91,40.91,0,0,1-8.29-4.43,14.93,14.93,0,0,1-6.06-11.28,21.8,21.8,0,0,1,1.08-9.29,15.65,15.65,0,0,1,8.74-9.43,21.06,21.06,0,0,1,18.41.2,22.21,22.21,0,0,1,3.17,2.18.73.73,0,0,1,.2.63c-.67,2.35-1.37,4.69-2.06,7-.08.28,0,.6-.51.62s-.59-.15-.74-.54a12.24,12.24,0,0,0-5.28-6.54c-5.58-3.2-14.36-.89-16,7.34a11.88,11.88,0,0,0,3,11.11,20.44,20.44,0,0,0,6.29,4.18c2.88,1.36,5.8,2.63,8.66,4a18.55,18.55,0,0,1,5.34,3.84A14.08,14.08,0,0,1,255,65.85a23.38,23.38,0,0,1-3,13.48,19.68,19.68,0,0,1-13.23,9.47,22.3,22.3,0,0,1-17.19-3,14.35,14.35,0,0,1-2-1.68.78.78,0,0,1-.21-.61c.5-2.72,1-5.44,1.54-8.16A1,1,0,0,1,221,75.17Z"/><path d="M366.06,75.12c.42-.14.75.06,1,.59a21.65,21.65,0,0,0,5.46,6.79c4.46,3.47,10.9,3.64,15.1.34a14.09,14.09,0,0,0,5.18-9.6,13.94,13.94,0,0,0-.7-7,12.19,12.19,0,0,0-6-6.39c-2.62-1.38-5.35-2.56-8-3.81a33.1,33.1,0,0,1-6.41-3.66,14.59,14.59,0,0,1-5.72-9.8,22,22,0,0,1,.78-10.22,15.72,15.72,0,0,1,9.07-9.93,21.08,21.08,0,0,1,17.71,0,24.48,24.48,0,0,1,3.65,2.4.79.79,0,0,1,.22.69c-.66,2.33-1.35,4.64-2,7-.08.29,0,.65-.54.66s-.59-.22-.73-.57a12,12,0,0,0-5.58-6.68A10.86,10.86,0,0,0,372.68,34c-.86,5.83,1.36,10.27,6.74,13.27,2.6,1.45,5.38,2.59,8.08,3.85a37.46,37.46,0,0,1,6.4,3.55,14.24,14.24,0,0,1,6,11.51,23.51,23.51,0,0,1-2.77,12.69A19.85,19.85,0,0,1,382.71,89a22.31,22.31,0,0,1-15.9-3,15.2,15.2,0,0,1-2.27-1.86.91.91,0,0,1-.2-.73C364.89,80.66,365.46,78,366.06,75.12Z"/><path d="M305.54,27.79a141.1,141.1,0,0,0-18.06-1.16V88.25h-7.7V26.64a145.72,145.72,0,0,0-18.94,1.15V22h44.71Z"/><path d="M219.13,102.62c1.48.07,2.83.18,4.18.17,2.14,0,4.27-.12,6.41-.19a18.51,18.51,0,0,1,5.52.55,7.54,7.54,0,0,1,4.93,11,10.07,10.07,0,0,1-5.65,4.9c-1,.41-2.12.64-3.19.94l-.58.17,13.54,17A12.71,12.71,0,0,0,243,137c-1.31,0-2.62,0-3.92.1a.83.83,0,0,1-.89-.42,161.84,161.84,0,0,0-11.78-15.29c-.81-.92-1.67-.9-2.81-.75L224,137h-4.83A343.43,343.43,0,0,0,219.13,102.62Zm4.55,15.82c.69.06,1.37.15,2.06.18a13.45,13.45,0,0,0,7.06-1.29,7,7,0,0,0,3.64-7.6,5.8,5.8,0,0,0-5.44-5,53.08,53.08,0,0,0-6.66,0c-.46,0-.43.33-.44.65-.07,2.14-.18,4.27-.22,6.41S223.68,116.13,223.68,118.44Z"/><path d="M139,102.34c1,.06,1.91.17,2.82.16,2.42,0,4.84-.16,7.26-.14a30.08,30.08,0,0,1,5.28.34c4.64.86,6.91,3.93,6.65,8.7-.24,4.43-2.72,7.48-7.26,9a25.53,25.53,0,0,1-9.46.84l-.84-.06.39,15.58H139Q139.84,119.67,139,102.34ZM143.56,119a13.83,13.83,0,0,0,8.48-.57,6.79,6.79,0,0,0,4.09-4.94,10.82,10.82,0,0,0,0-5,4.91,4.91,0,0,0-3.4-3.74,7,7,0,0,0-1.91-.43c-2.37-.1-4.75-.12-7.12-.16,0,0-.07,0-.13.08Z"/><path d="M173.53,137h-3.64a3.25,3.25,0,0,1,.13-.38q7.6-17.09,15.21-34.18a.72.72,0,0,1,.72-.5c.47,0,.58.26.72.59q6.12,14.49,12.25,29c.79,1.86,1.65,3.7,2.46,5.5H196.3c-1.68-4.2-3.38-8.43-5-12.66a.85.85,0,0,0-1-.62c-3.34,0-6.68,0-10,0a5,5,0,0,1-.85,0c-.94-.17-1.26.36-1.54,1.14-1.42,4-2.87,8-4.31,12Zm11.23-28.24-5.43,12.66h11Z"/><path d="M261,102.74h4.77c-.52,11.4-.52,22.87,0,34.25H261c.1-5.66.28-11.4.28-17.13S261.13,108.43,261,102.74Z"/><path d="M75.88,16.49l5-5.55q4-4.42,8-8.84A16.72,16.72,0,0,1,90.18.84,2.87,2.87,0,0,1,94.77,2a3.41,3.41,0,0,1-1.42,4.49q-5.58,3.9-11.18,7.76c-.88.61-1.77,1.2-2.63,1.83a2.11,2.11,0,0,1-1.45.45C77.42,16.46,76.75,16.49,75.88,16.49Z"/></svg>