<svg id="Шар_1" data-name="Шар 1" xmlns="http://www.w3.org/2000/svg" viewBox="0 0 441.25 117.14"><title>loreal</title><path d="M108,0c3,.31,6.11.48,9.11,1a45.59,45.59,0,0,1,10.95,3.37,38.21,38.21,0,0,1,8.18,4.9,38.92,38.92,0,0,1,9.22,10.25,38.31,38.31,0,0,1,4,8.58,39.5,39.5,0,0,1,1.85,9.79,41.29,41.29,0,0,1-.76,10.64,35,35,0,0,1-6,13.77,39.41,39.41,0,0,1-11,10.24A47.94,47.94,0,0,1,124.39,77a46.3,46.3,0,0,1-12.33,2.55,47.05,47.05,0,0,1-6.72.12,76.89,76.89,0,0,1-7.79-1.07,41.12,41.12,0,0,1-10.09-3.27,43.27,43.27,0,0,1-8.57-5.16,39.89,39.89,0,0,1-7-6.91A33.81,33.81,0,0,1,67.13,55a38.54,38.54,0,0,1-2.61-10,40.36,40.36,0,0,1-.14-7.94,33.94,33.94,0,0,1,1.51-8.17,71,71,0,0,1,2.68-6.58,32.06,32.06,0,0,1,4.36-6.71A39.43,39.43,0,0,1,85.78,5.24a46,46,0,0,1,11.47-4A42.75,42.75,0,0,1,108,.24Zm-.08,71.71c.83,0,1.91,0,3-.14A34.89,34.89,0,0,0,124.69,67a36.09,36.09,0,0,0,9.41-8,28.62,28.62,0,0,0,4.11-6.61,29.68,29.68,0,0,0,2.34-8,29.1,29.1,0,0,0,.13-7.69A32.64,32.64,0,0,0,126,13.15a32.82,32.82,0,0,0-8-3.68,30.36,30.36,0,0,0-9.87-1.34,35.86,35.86,0,0,0-11,1.74A32.53,32.53,0,0,0,80.83,21.95a32.41,32.41,0,0,0-4.71,9.64,29.58,29.58,0,0,0-.73,13.89,30.94,30.94,0,0,0,4.3,11.06,31.55,31.55,0,0,0,7.7,8.32,33.83,33.83,0,0,0,8.76,4.76A34.55,34.55,0,0,0,107.92,71.71Z"/><path d="M172.19,74.24H169.1c-1.77,0-3.54,0-5.3,0-.7,0-.84-.22-.84-.88q0-17.05,0-34.1,0-4.86,0-9.73,0-7.65,0-15.3c0-.93-.06-1.85-.1-2.78,0-.53.13-.78.74-.78q10.07,0,20.14,0c3.79,0,7.57,0,11.36,0,2.22,0,4.45.05,6.67.1a38.14,38.14,0,0,1,5.64.25,37.1,37.1,0,0,1,6.47,1.81,15.71,15.71,0,0,1,6.71,4.81,18.17,18.17,0,0,1,3.92,8.6,18.46,18.46,0,0,1,.44,2.94A17.83,17.83,0,0,1,221.51,40c-2.79,3.89-6.68,6.06-11.11,7.48l-.58.2c-.39.13-.45.31-.19.68,1.91,2.71,3.74,5.49,5.72,8.15,4.34,5.84,8.76,11.63,13.14,17.44a1.23,1.23,0,0,1,.09.3c-.28,0-.52,0-.76,0-3.36,0-6.71,0-10.07,0a1.18,1.18,0,0,1-1.08-.55c-3.21-4.45-6.44-8.89-9.65-13.35-2.89-4-5.75-8.06-8.66-12.07a1.41,1.41,0,0,0-1-.51c-8.15,0-16.3,0-24.45,0-.76,0-.81.34-.81.93q.07,12.52.12,25C172.24,73.87,172.21,74,172.19,74.24Zm-.06-34.19h1q13.8,0,27.61,0a26.89,26.89,0,0,0,6.68-.72,9.48,9.48,0,0,0,5.9-3.94,11.19,11.19,0,0,0,1.92-7.63c-.47-3.87-2.74-6.46-6.16-8.06a15,15,0,0,0-6.41-1.28c-9.89,0-19.78,0-29.68,0-.69,0-.92.16-.92.89,0,6.64,0,13.28,0,19.92Z"/><path d="M301,74.34c.3-.63.53-1.13.78-1.62,1.4-2.76,2.79-5.52,4.21-8.26,2.37-4.59,4.78-9.15,7.14-13.74s4.5-8.95,6.77-13.41c1.74-3.41,3.54-6.79,5.29-10.2q3.66-7.12,7.28-14.27c.87-1.72.86-1.74,2.78-1.72,2.47,0,4.93.07,7.4.09.91,0,1.82-.07,2.73,0a1.06,1.06,0,0,1,.77.44c1.37,2.63,2.69,5.29,4,7.93,1.48,2.88,3,5.75,4.49,8.62s2.91,5.63,4.37,8.45l3.85,7.49,4.6,8.91q2.42,4.69,4.84,9.39t4.82,9.24c.36.68.74,1.35,1.09,2,.13.24.21.5.37.87-1.71,0-3.29,0-4.87,0-1.86,0-3.72,0-5.58-.09a1,1,0,0,1-.76-.42c-.87-1.59-1.69-3.2-2.53-4.81l-4-7.67c-.5-1-1-1.92-1.5-2.84a1,1,0,0,0-.74-.47c-2.86-.05-5.72-.07-8.57-.07h-23.6c-1.83,0-3.66-.09-5.5-.08a1.1,1.1,0,0,0-.8.51q-3.13,6-6.2,12.06c-.55,1.07-1,2.17-1.59,3.23a.88.88,0,0,1-.59.46C308.27,74.35,304.74,74.34,301,74.34Zm54-24.27L339.67,20.14,324.5,50.07Z"/><path d="M239.78,10.81H248l34.83.11,13.2,0c.34,0,.6,0,.6.48,0,2.16,0,4.33,0,6.6h-2.3l-20.45,0c-2,0-4.08,0-6.12,0-1.8,0-3.6-.07-5.4-.07-4,0-8,0-12,0-.73,0-.89.22-.89.91,0,5.89,0,11.78.05,17.68,0,1.7,0,1.7,1.74,1.7h33.54v7.05H249.65v.82c0,6.74,0,13.48,0,20.22,0,.79.21,1,1,1q16.41,0,32.83,0c2.56,0,5.13.07,7.69.07,1.65,0,3.31,0,5-.09.49,0,.69.15.69.65,0,1.88,0,3.75,0,5.63,0,.7-.22.85-.88.84-2.56,0-5.12,0-7.68,0-4.85,0-9.69-.07-14.54-.09-3.93,0-7.87,0-11.8,0H239.78Z"/><path d="M383.37,74.53V11.41h3c1.77,0,3.54,0,5.3,0,.63,0,.77.19.77.79q0,16.59,0,33.19c0,7.12,0,14.24,0,21.36,0,.65.14.9.83.89,3.38,0,6.76,0,10.15,0h36.42c1.29,0,1.33,0,1.37,1.25,0,1.73,0,3.47,0,5.21,0,.44-.16.58-.58.57q-5-.06-10.06-.08c-2.62,0-5.23,0-7.85,0l-13.34,0h-26Z"/><path d="M8.89,10.81c0,2.52,0,4.94,0,7.37,0,1.28-.09,2.56-.09,3.83,0,2,0,4.07,0,6.1q0,4.94,0,9.87,0,9.91,0,19.82c0,3,0,6,0,9,0,.55.15.79.74.79q5-.06,10-.08c2.32,0,4.64.05,7,0,2.71,0,5.42-.08,8.14-.09q10.88,0,21.75,0c1.24,0,1.23,0,1.23,1.24,0,1.62,0,3.24,0,4.86,0,.74-.19.94-.93.94q-19.3,0-38.59,0c-4.32,0-8.63,0-13,.07H1.08c-1.07,0-1.07,0-1.07-1Q0,58.38,0,43.26q0-4.72,0-9.45Q0,24.92,0,16c0-1.54,0-3.09,0-4.63,0-.35,0-.59.49-.59Z"/><path d="M236.34,105.26l8.13,11c-.7,0-1.19-.09-1.69-.1-1.13,0-2.26,0-3.38,0a1.36,1.36,0,0,1-.93-.47c-2.21-3.13-4.36-6.3-6.58-9.42a1.7,1.7,0,0,0-1.17-.64c-2.8-.06-5.6,0-8.39,0-.59,0-.73.19-.73.75,0,3.08,0,6.15,0,9.23,0,.68-.25.82-.84.81q-1.75,0-3.5,0c-.63,0-.63-.37-.61-.81,0-1,.07-2.07.07-3.1,0-6.85,0-13.71-.09-20.56,0-.74.2-.94.94-.94,5.1,0,10.2,0,15.3,0a13.61,13.61,0,0,1,7.38,1.94,6.16,6.16,0,0,1,2.8,5.91c-.53,3.43-2.74,5.12-5.77,6.12Zm-9.57-2.76c1.38,0,2.77,0,4.15,0a14.26,14.26,0,0,0,4.65-.75,3.7,3.7,0,0,0,2.52-3.84,3.29,3.29,0,0,0-2.75-3.32,27,27,0,0,0-4.82-.66c-2.68-.11-5.37,0-8.06,0-1,0-1,.06-1,1,0,2.26,0,4.52,0,6.77,0,.55.13.8.72.79C223.75,102.48,225.26,102.5,226.77,102.5Z"/><path d="M208.32,116.33c-1.92,0-3.7,0-5.48,0-.8,0-.87-.82-1.13-1.3-.92-1.68-1.76-3.4-2.6-5.12a1.52,1.52,0,0,0-1.58-1c-4.46.06-8.92.07-13.37,0a1.83,1.83,0,0,0-1.87,1.18c-1,1.9-2,3.78-3,5.68a1,1,0,0,1-1,.59c-1.56,0-3.12,0-4.91,0,.46-.82.84-1.51,1.24-2.2,2.13-3.72,4.26-7.44,6.41-11.15,1.84-3.18,3.72-6.34,5.58-9.51.35-.59.69-1.19,1-1.81a1.17,1.17,0,0,1,1.2-.74c1.56,0,3.13,0,4.69,0a1.07,1.07,0,0,1,1.08.65L203.73,108l4.32,7.68C208.13,115.84,208.18,116,208.32,116.33Zm-11.76-10.65-5.74-10.89-6.13,10.89Z"/><path d="M270.89,108c.51,0,1,.1,1.51.1.76,0,1.52-.09,2.28-.06a.79.79,0,0,1,.56.48,6.58,6.58,0,0,0,1.13,2.79,7.06,7.06,0,0,0,4,2.21,18.79,18.79,0,0,0,8.61.12,6.9,6.9,0,0,0,3.27-1.37,3,3,0,0,0,1.2-2.59,3,3,0,0,0-1.78-2.79,33.67,33.67,0,0,0-7.09-1.79c-2.75-.52-5.49-1.1-8.21-1.76a9.63,9.63,0,0,1-2.25-1.12c-2-1.1-2.67-3.81-1.92-6.06a7.45,7.45,0,0,1,4.71-4.58,19.13,19.13,0,0,1,9.31-1,29.86,29.86,0,0,1,4.79.82c2.34.65,4.41,1.82,5.41,4.21a22.93,22.93,0,0,1,.79,2.91c-1.51,0-2.88,0-4.25,0-.16,0-.41-.36-.44-.59-.33-2-1.63-3-3.42-3.63a15.38,15.38,0,0,0-9.84-.09,3.58,3.58,0,0,0-2.58,4.32,2,2,0,0,0,1.52,1.56c1.88.53,3.8.92,5.72,1.32,3,.62,6.09,1,9.05,1.87a6.45,6.45,0,0,1,4.59,3.61,6.2,6.2,0,0,1-1.74,7.31,11.5,11.5,0,0,1-4.75,2.22,29.74,29.74,0,0,1-10.49.48,13.56,13.56,0,0,1-7-2.75,7.6,7.6,0,0,1-2.8-5.38.72.72,0,0,1,0-.22Z"/><path d="M150.36,105.68v10.6h-4.88v-.86c0-5.2,0-10.39,0-15.59,0-2.74-.06-5.49-.11-8.23,0-.5.15-.66.66-.65,2.59,0,5.18,0,7.78,0,2.8,0,5.61-.08,8.41,0a13.94,13.94,0,0,1,6.73,1.76,6.17,6.17,0,0,1,1.68,9.47,9.13,9.13,0,0,1-6.86,3.23c-4.14.2-8.28.18-12.42.25Zm5-11.87v.09c-1.43,0-2.86,0-4.3,0-.52,0-.74.18-.74.71q0,3.69,0,7.38c0,.52.2.65.69.64,3-.05,6-.06,9-.13a12.65,12.65,0,0,0,4.65-.78,3.45,3.45,0,0,0,2.31-3c.17-1.58-.22-3-1.77-3.74a8.57,8.57,0,0,0-2.84-.84C160,93.95,157.69,93.91,155.34,93.81Z"/><path d="M59.81,10.81l-1.58,3-4.45,8.3c-1.87,3.49-3.73,7-5.62,10.47-.16.29-.46.69-.7.7-2.1.06-4.21,0-6.42,0,.13-.37.22-.7.35-1l6.72-16.78c.56-1.4,1.1-2.8,1.68-4.2.08-.19.31-.45.48-.45C53.4,10.81,56.52,10.81,59.81,10.81Z"/><path d="M255.48,116.16c0-1,0-2,0-3,0-4.84,0-9.67,0-14.51,0-.7.21-.87.88-.85,1.27,0,2.54,0,3.83,0,0,.77,0,1.43,0,2.08,0,5.15,0,10.29.07,15.44,0,.74-.19.87-.93.81C258.07,116.08,256.82,116.16,255.48,116.16Z"/><path d="M261.51,9.27c.63-.72,1.25-1.45,1.89-2.16,1.77-1.95,3.54-3.89,5.33-5.81a1.41,1.41,0,0,1,.9-.45c5.23,0,10.46,0,15.69,0,.07,0,.13,0,.25.22l-24,8.33Z"/><path d="M255.41,90.8H260v4.59c-1.43,0-2.8,0-4.17,0a.63.63,0,0,1-.42-.45C255.39,93.57,255.41,92.22,255.41,90.8Z"/></svg>