<svg id="Шар_1" data-name="Шар 1" xmlns="http://www.w3.org/2000/svg" viewBox="0 0 437.66 48.84"><title>mac</title><g id="GXSPPr.tif"><path d="M306.23,45.2c-.75,2.37-2.55,3.56-5.38,3.63a8.32,8.32,0,0,1-3.92-.9q-11.65-5.68-23.31-11.33a4.12,4.12,0,0,0-1.73-.39q-50.37-.09-100.74-.13c-1.29,0-1.29,0-1.51-1.39L181.51,29c1.37-.66,2.78-1.26,4.11-2a8.26,8.26,0,0,1,4.2-1q30.33.09,60.67.1h1.23a4.36,4.36,0,0,0-.49-.36Q235.31,18,219.37,10.27a1.55,1.55,0,0,0-1.18.05q-12.93,6.21-25.84,12.47l-51.82,25a8,8,0,0,1-6.22.42,3.68,3.68,0,0,1-2.85-4q0-15.84,0-31.67c0-.33,0-.67,0-1.13L126,13.76,77.14,34.45a15.12,15.12,0,0,1-12.26,0l-7.33-3.09,5-2.15L115.2,7c4.54-1.92,9.05-3.88,13.62-5.72a12.3,12.3,0,0,1,9.2-.1,9.14,9.14,0,0,1,2.16,1.23,4.1,4.1,0,0,1,1.71,3.5q0,14.24,0,28.47c0,.34,0,.69,0,1.16.33-.13.56-.19.78-.3l37.65-18.2L212.48,1.52a14.1,14.1,0,0,1,12.91.08l25.1,12.2,41.11,20,.82.37c-.16-.34-.24-.54-.34-.73-3.62-7.08-2.92-13.83,1.77-20.14,3.63-4.89,8.69-7.82,14.35-9.8A46.9,46.9,0,0,1,324,1.12c14.89.06,29.77.06,44.66.07l62.05,0a8,8,0,0,1,4.81,1.41,4.47,4.47,0,0,1,0,7.63,8.09,8.09,0,0,1-4.82,1.37l-46.13,0c-20.71,0-41.43-.1-62.14-.06a28.24,28.24,0,0,0-16.52,4.79,12.33,12.33,0,0,0-4.45,5.08c-1.51,3.41-.71,6.91,2.29,9.92a22,22,0,0,0,9.73,5.37A37.26,37.26,0,0,0,324,38l106.45.1a8.36,8.36,0,0,1,5.07,1.41,4.47,4.47,0,0,1-.06,7.62,7.92,7.92,0,0,1-4.65,1.37l-57.72-.06c-15.92,0-31.85-.09-47.77,0C318.76,48.42,312.36,47.8,306.23,45.2Z"/><path d="M70.07,25.44l-4.16,1.76c-2.79,1.17-5.59,2.31-8.36,3.52a1.94,1.94,0,0,1-1.7,0q-22.19-9.5-44.4-19c-.31-.13-.63-.25-1.07-.42,0,.45,0,.79,0,1.12,0,10.58,0,21.17,0,31.75A3.66,3.66,0,0,1,8,47.9a6.61,6.61,0,0,1-6.37-.43,3.26,3.26,0,0,1-1.62-3Q0,25.17,0,5.84C0,3.41,1.46,2.08,3.45,1.23a12.06,12.06,0,0,1,9.76,0q21.51,9.1,43,18.29l13.19,5.62Z"/><path d="M278.57,22.39a12.8,12.8,0,0,1-5.94-1.25,6.87,6.87,0,0,1-1.56-1.06,3.06,3.06,0,0,1,.19-4.92A10.87,10.87,0,0,1,277.63,13a13.39,13.39,0,0,1,6.81,1.18c1.47.71,2.81,1.65,2.81,3.49s-1.34,2.78-2.81,3.5A12.91,12.91,0,0,1,278.57,22.39Z"/><path d="M159.14,22.32A13.86,13.86,0,0,1,153,21c-1.37-.72-2.59-1.66-2.61-3.37s1.16-2.74,2.56-3.38a14.06,14.06,0,0,1,12.41.12,5.18,5.18,0,0,1,1.37,1,3,3,0,0,1,0,4.45,8.57,8.57,0,0,1-4.7,2.18C161.1,22.17,160.11,22.22,159.14,22.32Z"/></g></svg>