<svg id="Шар_1" data-name="Шар 1" xmlns="http://www.w3.org/2000/svg" viewBox="0 0 491.03 86.22"><defs><style>.cls-1{fill:#fff;}</style></defs><title>phisiotherm</title><path d="M423.49,43.13h-5.42l6.25-42.05c.14,0,.4,0,.66.06a12.9,12.9,0,0,0,2.93,0c1-.21,1.3.16,1.68,1q6.57,13.71,13.21,27.39c.11.24.25.46.48.87.45-.85.84-1.55,1.19-2.26Q450.85,15,457.19,1.85a1.1,1.1,0,0,1,1.35-.74,18.87,18.87,0,0,0,3.42,0c.64,0,.84.06.92.73.44,4.17.94,8.34,1.42,12.51.51,4.41,1,8.83,1.54,13.23.64,4.94,1.37,9.87,2.06,14.81,0,.26,0,.53,0,.76H458.2l-2.5-28.25-.31,0c-.25.5-.51,1-.76,1.51q-6.21,13-12.39,26.06c-.3.63-.65.74-1.33.84-1.34.19-1.68-.57-2.14-1.52Q432.72,29,426.58,16.32a3,3,0,0,0-.54-.81C424.64,24.69,424.11,33.93,423.49,43.13Z"/><path d="M301.2,1.15H311c0,.26,0,.54,0,.83-.14,4.93-.29,9.87-.42,14.8,0,1.13,0,1.15,1.1,1.15H328.3c1.08,0,1.11,0,1.08-1.09-.14-4.93-.3-9.87-.45-14.8,0-.29,0-.59,0-.89h9.86q-.92,21,0,42h-9.86c.07-1.37.17-2.77.2-4.18.1-5.18.17-10.37.26-15.55,0-.52-.24-.63-.7-.64-3.57-.07-7.15-.2-10.72-.22-2.42,0-4.84.14-7.48.22l.43,20.37H301.2C301.75,29.19,301.75,15.16,301.2,1.15Z"/><path d="M44.09,17.83h19L62.6,1.08h9.74C72.21,5.67,72,10.35,72,15s-.07,9.39,0,14.08.25,9.36.38,14H62.71c0-1.39,0-2.88,0-4.38q.12-7.65.28-15.3c0-.54-.23-.75-.72-.75l-14.4-.08c-.93,0-1.86.09-2.78.05-.73,0-.95.26-.93,1,.1,5,.16,10.09.26,15.14,0,1.47.13,2.93.2,4.36h-9.7c.08-6.9.23-13.92.23-20.94S35,8.07,34.92,1.08h9.62Z"/><path d="M214.47,21.89A22,22,0,0,1,196.75,43.4a28.26,28.26,0,0,1-17.62-1.64c-6.2-2.7-9.8-7.55-11.08-14.13a23.72,23.72,0,0,1,1.18-14.13A20.61,20.61,0,0,1,181.65,1.76a27.63,27.63,0,0,1,21.41.83c6,2.72,9.47,7.55,10.74,14C214.16,18.3,214.25,20.11,214.47,21.89ZM204.39,21A22.6,22.6,0,0,0,202,10.15a12.2,12.2,0,0,0-13.57-6.35c-4.11.9-6.7,3.69-8.48,7.32A24.74,24.74,0,0,0,177.57,21a27.32,27.32,0,0,0,1.7,11.87c2.43,5.93,7.91,8.31,13.58,7.23,4.48-.85,7.36-3.7,9.26-7.67A27.82,27.82,0,0,0,204.39,21Z"/><path d="M391.61,43.14h-9.73c.09-6.93.26-13.92.26-20.92s-.17-14-.26-21.14h1L393.68,1c3.27,0,6.56-.23,9.76.67a9.39,9.39,0,0,1,6.82,8.75c.2,5.93-2.68,9.91-8.44,11.69l-1.06.33c4,7.13,8.54,13.85,13,20.85-1.06-.08-1.92-.2-2.77-.19q-3.72,0-7.44.16a1.16,1.16,0,0,1-1.22-.68q-5-8.93-10-17.83a2.48,2.48,0,0,0-.33-.56,3.48,3.48,0,0,0-.62-.41,1.89,1.89,0,0,0-.25.62c0,2,0,3.93,0,5.9.07,3.19.19,6.38.3,9.57C391.47,41,391.55,42.05,391.61,43.14Zm-.32-26.92h-.16c0,1.39,0,2.78,0,4.17,0,.63.2.92.82.91.81,0,1.63,0,2.44-.09A7,7,0,0,0,400.5,16a14.52,14.52,0,0,0,.19-6.63c-.5-2.74-1.75-4.09-4.47-4.6-1.3-.24-2.65-.21-4-.34-.73-.07-1,.16-1,.94C391.31,9,391.29,12.6,391.29,16.22Z"/><path d="M0,1c1.84.08,3.66.23,5.48.21,3.41,0,6.82-.29,10.22-.24a23.23,23.23,0,0,1,5.48.78,9.62,9.62,0,0,1,7.13,8.88,14.85,14.85,0,0,1-1.07,6.89c-1.63,3.71-4.69,5.6-8.45,6.59a31.25,31.25,0,0,1-8.29.68c-1.1,0-1.13,0-1.1,1.14q.19,8.22.41,16.44c0,.27,0,.53,0,.73H0C.63,29.13.63,15.07,0,1Zm9.4,20.8c1-.09,1.95-.11,2.82-.26a6.94,6.94,0,0,0,6-5,13.38,13.38,0,0,0,0-7.89A5.53,5.53,0,0,0,13.89,4.5a25.54,25.54,0,0,0-3.25-.21c-.77-.06-1.11.18-1.1,1,0,3.41-.06,6.82-.09,10.22C9.43,17.57,9.44,19.58,9.44,21.79Z"/><path d="M372.28,1.12V6.18l-13.71-.73c-.08.92-.19,1.7-.2,2.48-.07,3.41-.11,6.82-.18,10.23,0,.69.2.86.9.83,3.22-.14,6.44-.21,9.65-.3,1.08,0,2.17,0,3.23,0v4.89c-.53,0-1.14,0-1.76,0q-5.6-.21-11.2-.45c-.58,0-.84.14-.83.78,0,4.29,0,8.57.07,12.86,0,.65.08,1.3.14,2.17l13.88-.74v5H348.8q.94-21,0-42Z"/><path d="M118.91,33.78a7.92,7.92,0,0,0,5,5.95,9.63,9.63,0,0,0,6.18.24,5.78,5.78,0,0,0,4.39-4.59,5.72,5.72,0,0,0-2.27-6.16,48.61,48.61,0,0,0-5.7-3.33,29.05,29.05,0,0,1-6.76-4.25,10.69,10.69,0,0,1-3.41-7.55,12.9,12.9,0,0,1,2.74-9.18A12.9,12.9,0,0,1,127.32.36,17.77,17.77,0,0,1,138,1.74c2.18,1,2.16,1.06,1.44,3.34-.34,1.06-.63,2.14-1,3.19a3.44,3.44,0,0,1-.61.82c-.26-.23-.63-.41-.76-.69a7.35,7.35,0,0,0-7.43-4.59,6,6,0,0,0-6.16,5.11,4.88,4.88,0,0,0,1.71,4.56,29.9,29.9,0,0,0,4.4,2.94c2.13,1.21,4.4,2.17,6.51,3.43,4,2.37,6.14,5.83,6,10.6A12.63,12.63,0,0,1,135.06,42a19.35,19.35,0,0,1-10.62,2,18.81,18.81,0,0,1-7.38-1.9,1.2,1.2,0,0,1-.75-1.7,56.58,56.58,0,0,0,1.35-5.8C117.81,33.8,118,33.49,118.91,33.78Z"/><path d="M77.88.93c1.75.1,3.35.27,5,.27A44.48,44.48,0,0,0,87.65,1a1.23,1.23,0,0,1,1.5.8c2.6,5.37,5.24,10.73,7.88,16.08.25.51.56,1,.92,1.62.37-.53.67-.94.94-1.36a104,104,0,0,0,6.54-12.9C106,4,106.53,2.76,107,1.53c.2-.48.41-.58,1-.55,1.59.09,3.19,0,4.86,0-.07.17-.14.35-.23.52q-6,10.92-11.91,21.83a4.6,4.6,0,0,0-.58,2.33c0,3.68,0,7.37,0,11,0,1.85.27,3.7.41,5.54,0,.29,0,.59,0,.8H90.35c.07-1.15.09-2.4.23-3.64a90,90,0,0,0,.4-13,4.09,4.09,0,0,0-.53-1.69q-6.06-11.51-12.16-23C78.16,1.53,78.05,1.29,77.88.93Z"/><path d="M263.64,6.2V1.13h31.22c-.08.82-.22,1.65-.22,2.48s.14,1.68.23,2.61L292.62,6c-2.53-.18-5.06-.38-7.59-.54-1.05-.07-1.09,0-1.09,1.08,0,7.23-.11,14.47-.06,21.7,0,4.66.27,9.32.41,14,0,.29,0,.59,0,.87h-9.75c0-.76,0-1.62,0-2.48.1-3.3.29-6.6.3-9.9,0-7.86,0-15.72,0-23.59,0-1.76,0-1.77-1.79-1.63-3,.24-6,.46-9,.68A3.36,3.36,0,0,1,263.64,6.2Z"/><path d="M150.22,1.08H160c-.62,14-.62,28,0,42h-9.82C150.84,29.11,150.84,15.05,150.22,1.08Z"/><path d="M257.46,9.87a8.79,8.79,0,0,1-2.54,4.59,11,11,0,0,1-6.69,2.91c-3.64.42-7.06-.56-10.5-1.54a38.49,38.49,0,0,0-5.09-1.13A5.37,5.37,0,0,0,227.09,17a1.34,1.34,0,0,1-.92.47c-1.06.06-2.12,0-3.3,0a8.38,8.38,0,0,1,.22-1c1.38-3.78,4.21-5.78,8.06-6.45,3.67-.64,7.2.09,10.68,1.19a23,23,0,0,0,6.76,1.41,5.06,5.06,0,0,0,4.48-2.23,1.27,1.27,0,0,1,1.23-.6C255.31,9.89,256.31,9.87,257.46,9.87Z"/><path d="M222.86,29.05a9.07,9.07,0,0,1,2.82-4.81c2.55-2.26,5.63-2.81,8.92-2.74,2.93.07,5.66,1,8.45,1.76a33.3,33.3,0,0,0,5.43,1,4.8,4.8,0,0,0,4.63-2.23,1.21,1.21,0,0,1,1.16-.57c1,0,2,0,3.19,0a8.18,8.18,0,0,1-1.66,3.59c-2.26,2.86-5.35,3.84-8.86,4s-6.5-.87-9.68-1.74a37.69,37.69,0,0,0-4.53-1,5.46,5.46,0,0,0-5.55,2.19,1.49,1.49,0,0,1-1,.51C225.14,29.1,224.08,29.05,222.86,29.05Z"/><path d="M257.56,33.14a22.91,22.91,0,0,1-.87,2.18,9.78,9.78,0,0,1-7.37,5.14c-3.55.64-7,0-10.39-1a59.44,59.44,0,0,0-6.1-1.46,5.33,5.33,0,0,0-5.67,2.23c-.12.17-.3.42-.45.42-1.24,0-2.48,0-3.82,0a8.55,8.55,0,0,1,1.82-3.75,10.7,10.7,0,0,1,7.66-3.71c3.67-.35,7.12.64,10.58,1.67a31.72,31.72,0,0,0,4.61,1,5.3,5.3,0,0,0,5.54-2.18,1.21,1.21,0,0,1,1.15-.59C255.27,33.16,256.3,33.14,257.56,33.14Z"/><path d="M320,82.93v2.71h-1.83V62.23h2v9.48a17.69,17.69,0,0,1,1.61-1.88c3.2-2.8,8.86-1.78,10.8,2a11.42,11.42,0,0,1,.18,10.34c-2,4.27-7,4.79-9.91,3.24A15.56,15.56,0,0,1,320,82.93Zm5.89-13a5,5,0,0,0-4.82,2.9,9.48,9.48,0,0,0,.07,8.89,5.5,5.5,0,0,0,9.74-.26,9.6,9.6,0,0,0,.13-8.23A5.18,5.18,0,0,0,325.9,69.93Z"/><path d="M283.68,73.85H281.9a4.86,4.86,0,0,1,1.75-4,7.24,7.24,0,0,1,5.53-1.5,11.55,11.55,0,0,1,3.3.81,3.54,3.54,0,0,1,2.28,3.55c0,2.89,0,5.78,0,8.68,0,.3,0,.6,0,.9.1,1.79.11,1.79,1.83,2,.27,1.35.15,1.52-1.16,1.63a2,2,0,0,1-2.42-2c0-.26,0-.52-.08-1-.32.38-.52.59-.68.81-2.15,2.87-6.46,3.06-8.85,1.9a4.78,4.78,0,0,1-.69-7.86,9.55,9.55,0,0,1,5.08-1.56c1.08-.11,2.17-.19,3.25-.36a1.87,1.87,0,0,0,1.81-2.19A3.1,3.1,0,0,0,290,70.09a9.73,9.73,0,0,0-3-.05A3.52,3.52,0,0,0,283.91,73C283.84,73.25,283.76,73.53,283.68,73.85Zm9.26,2.82c-1.21.25-2.27.46-3.31.69-1.61.36-3.26.64-4.82,1.14a2.58,2.58,0,0,0-1.75,2.69,3,3,0,0,0,1.71,2.86c2.62,1.35,7.21.11,7.94-3.61A27.25,27.25,0,0,0,292.95,76.68Z"/><path d="M132.9,84.19c-.19.54.41,1.23-.44,1.5-1.4.44-2.7.06-3.05-.92a17.49,17.49,0,0,0-.59-1.9,2.35,2.35,0,0,1-.19.44c-1.93,2.81-5.43,3.33-8.19,2.55a4.15,4.15,0,0,1-3.24-3.77c-.21-2.11.36-3.94,2.38-4.85a19.66,19.66,0,0,1,4.23-1.11c1.06-.21,2.17-.22,3.25-.36a2,2,0,0,0,2-2.32,3.07,3.07,0,0,0-2.75-3.31,11.09,11.09,0,0,0-3.32,0,3.25,3.25,0,0,0-2.88,2.75c-.19,1-.66,1.18-1.49,1.05-.19,0-.38,0-.56,0a4.94,4.94,0,0,1,2.61-4.66,9.05,9.05,0,0,1,8.05-.08c1.77.78,2.24,2.34,2.24,4.11q0,4.05,0,8.11c0,.27,0,.55,0,.82C130.94,84,131,84.09,132.9,84.19Zm-3.83-7.5c-1.26.25-2.35.46-3.43.69a44,44,0,0,0-4.52,1,2.78,2.78,0,0,0-2,2.88,3,3,0,0,0,2.19,2.94,9,9,0,0,0,3.21.19,5,5,0,0,0,4.3-3.95A35.68,35.68,0,0,0,129.07,76.69Z"/><path d="M431.79,80.22a6.72,6.72,0,0,1-6.71,6c-4.46.1-7.58-2.73-8.05-7.2a12,12,0,0,1,.71-5.86,7.31,7.31,0,0,1,14.14,1.65c.14.91.17,1.84.26,2.9h-1.06c-3.74,0-7.48,0-11.22,0-.81,0-1,.27-.88,1,.1.51.16,1,.29,1.52a5.44,5.44,0,0,0,7.13,4.14,4.47,4.47,0,0,0,3.22-3.09,1.28,1.28,0,0,1,1.65-1ZM429.95,76a5.46,5.46,0,0,0-5.13-6.08c-3.74-.21-5.68,3-5.77,6.08Z"/><path d="M249.14,76.88l5.8-5a20.89,20.89,0,0,0,2.27-2c1.06-1.23,2.36-1.22,3.88-1L253.94,75l7.73,10.7c-.84,0-1.52,0-2.18,0a1.14,1.14,0,0,1-.67-.48c-2-2.69-3.91-5.39-5.87-8.08-.16-.22-.33-.43-.58-.74-1.12,1-2.22,1.89-3.28,2.86-.17.16-.17.56-.17.85,0,1.83,0,3.66,0,5.55H247V62.26h1.87V76.83Z"/><path d="M197.61,77.29a10,10,0,0,1-1.05,5,7.38,7.38,0,0,1-7.91,3.84c-4.06-.54-6.38-3.09-6.88-7.21a11.26,11.26,0,0,1,.94-6.52,7.6,7.6,0,0,1,7.75-4.07c4.9.38,6.94,4.26,7.16,7.92C197.63,76.58,197.61,76.94,197.61,77.29Zm-14-.1c.15.94.22,1.89.46,2.81a5.64,5.64,0,0,0,5.48,4.54,5.48,5.48,0,0,0,5.6-3.91,9.7,9.7,0,0,0-.19-7.26,5.33,5.33,0,0,0-5-3.43A5.41,5.41,0,0,0,184.62,73,9.7,9.7,0,0,0,183.58,77.18Z"/><path d="M454.15,68.79H456v2.79l.17.09c.15-.19.31-.37.44-.57a6.81,6.81,0,0,1,8.88-2,4.74,4.74,0,0,1,2.45,4.43c.06,4,0,8,0,12-.08.06-.12.12-.17.12-2.22.07-1.74.21-1.77-1.63,0-3.14-.07-6.28-.08-9.41,0-1.65-.24-3.21-1.89-4a5.22,5.22,0,0,0-5.31.22c-1.91,1.15-2.51,3-2.54,5.1-.05,3,0,6,0,9,0,.24,0,.48,0,.76h-1.94Z"/><path d="M393,85.68v-1.3c0-3.22,0-6.44,0-9.66a8.29,8.29,0,0,0-.24-2c-.52-2-2.67-3.1-5-2.67a5.28,5.28,0,0,0-4.51,5.41c-.06,2.95-.06,5.89-.09,8.84,0,1.63.18,1.38-1.47,1.4-.13,0-.26,0-.45,0V68.8H383v2.78l.17.08.57-.8c2.4-3.46,7.64-3.12,9.72-1a5.45,5.45,0,0,1,1.43,4c0,3.69,0,7.37,0,11.06,0,.58-.22.78-.77.72C393.83,85.66,393.47,85.68,393,85.68Z"/><path d="M25.72,68.84c.08,0,.1-.07.13-.07,2-.08,1.57-.12,1.62,1.46,0,.45,0,.9,0,1.59.28-.31.4-.42.48-.54a6.71,6.71,0,0,1,8.2-2.56A4.48,4.48,0,0,1,39.32,73c.11,4,.07,8,.11,12,0,.47-.14.71-.66.67s-.81,0-1.31,0c0-.39,0-.71,0-1,0-3.38,0-6.77,0-10.15a7.51,7.51,0,0,0-.19-1.62c-.47-2-2.55-3.25-4.93-2.87a5.17,5.17,0,0,0-4.58,5.07c-.11,3.13-.11,6.27-.15,9.41,0,.35,0,.7,0,1.12H25.72Z"/><path d="M480.93,20.73A9.94,9.94,0,1,1,491,11.07,9.86,9.86,0,0,1,480.93,20.73Zm-8.75-9.95a8.89,8.89,0,1,0,8.92-8.89A8.93,8.93,0,0,0,472.19,10.78Z"/><path d="M68.58,63.74c-.62,0-1.19,0-1.76,0a1.83,1.83,0,0,0-1.89,1.77c-.06,1,0,2.07,0,3.23a11.08,11.08,0,0,1,1.8,0c.58.1,1.61-.58,1.56.81,0,.87,0,.87-1.59.87H64.94V85.63h-2V70.45c-.82,0-1.55,0-2.28,0S60,70,60,69.6s-.1-.91.62-.86,1.41,0,2.19,0c.05-1.16,0-2.27.17-3.36A3.45,3.45,0,0,1,66.67,62h.65C68.78,62,68.89,62.19,68.58,63.74Z"/><path d="M219.66,70.46h-2.9V68.74h3c0-1.34,0-2.59,0-3.84,0-1.63-.18-1.38,1.47-1.4.13,0,.26,0,.47,0v5.2c1,0,1.91,0,2.82,0,.71,0,.73.34.73.86s0,.92-.7.88c-.89-.06-1.8,0-2.75,0a6.2,6.2,0,0,0-.07.67c0,3.44,0,6.88,0,10.32,0,2.36.68,2.92,3,2.6l.49-.06c0,.48,0,.92,0,1.36a.5.5,0,0,1-.35.34,17.79,17.79,0,0,1-3.09-.11,2.19,2.19,0,0,1-1.93-2.38c-.05-3.85-.05-7.7-.08-11.55C219.72,71.27,219.69,70.89,219.66,70.46Z"/><path d="M0,62.3c.06,0,.08-.08.11-.08,2-.2,2-.2,2,1.77q0,10.15,0,20.29c0,1.68.11,1.37-1.38,1.4-.21,0-.43,0-.69,0Z"/><path d="M91.79,72.44c.35-.54.68-1.11,1.07-1.63a5.51,5.51,0,0,1,4.51-2.25c.47,0,.79.1.69.61s.42,1.24-.58,1.31a5.84,5.84,0,0,0-4.56,2.37A6.87,6.87,0,0,0,91.79,77c0,2.86,0,5.73,0,8.66h-2V68.8h1.81v3.62Z"/><path d="M154.3,85.65V68.8h1.81v3.6l.2.15c1.24-2.63,3.14-4.17,6.2-4v1.8c-.63.1-1.26.15-1.86.3a5.64,5.64,0,0,0-4.32,5.66c-.07,2.7-.07,5.4-.09,8.1,0,1.24,0,1.24-1.23,1.23Z"/><path d="M357.8,85.65H356V68.81h1.81Z"/><path d="M357.81,65.35H356V62.25h1.8Z"/><path class="cls-1" d="M482.43,10.76a1.74,1.74,0,0,1,.28-.2c1.86-.7,2.58-1.8,2.28-3.52-.23-1.33-1.41-2.1-3.25-2.11-1.2,0-2.4,0-3.6,0-.6,0-.65.27-.64.75q0,4.25,0,8.51c0,2.08,0,2.08,2.08,2a1.32,1.32,0,0,0,.28-.08v-5a2,2,0,0,1,.7.76c.7,1.26,1.39,2.53,2.1,3.79.11.2.28.52.44.53.87.05,1.75,0,2.75,0Z"/><path d="M482.43,10.76l3.43,5.47c-1,0-1.88,0-2.75,0-.16,0-.33-.33-.44-.53-.71-1.26-1.4-2.53-2.1-3.79a2,2,0,0,0-.7-.76v5a1.32,1.32,0,0,1-.28.08c-2.09.06-2.08.06-2.08-2q0-4.25,0-8.51c0-.48,0-.77.64-.75,1.2,0,2.4,0,3.6,0,1.84,0,3,.78,3.25,2.11.3,1.71-.42,2.82-2.28,3.52A1.74,1.74,0,0,0,482.43,10.76Zm-2.68-4.91c0,1.27,0,2.54,0,3.81,0,.73.34.82.92.7a2.34,2.34,0,0,0,1.88-2.8C482.35,6.34,481.65,5.45,479.76,5.85Z"/></svg>