<svg id="Шар_1" data-name="Шар 1" xmlns="http://www.w3.org/2000/svg" viewBox="0 0 282.68 85.66"><title>suda</title><g id="_2ydv3j" data-name="2ydv3j"><path d="M144.51,43.12c0-13,0-26,0-39,0-1.82.24-2.92,2.48-2.88,9.63.16,19.28-.08,28.9.32,15,.64,28.09,11.06,32.65,25.48,2.46,7.79,3.85,15.65,2.21,23.82C208,64.5,197.26,80.72,180.34,84.23a41.33,41.33,0,0,1-8,.62c-8.26.08-16.52,0-24.78.07-2.35,0-3.14-.65-3.12-3.08.11-12.91.05-25.81.05-38.72Zm13.81-.43q0,15.62,0,31.25c0,3.16.19,3.5,3.38,3.27a102.35,102.35,0,0,0,13.81-1.53c9-1.89,15.69-6.93,18.74-15.88a54.47,54.47,0,0,0,2.11-27A26.53,26.53,0,0,0,186.82,16c-7.33-6-16.18-7.18-25.15-7.88-3.05-.24-3.33.18-3.34,3.35Q158.31,27.07,158.32,42.69Z"/><path d="M212.26,84.88c1.44-4.1,2.7-7.71,4-11.32L233.05,26q4-11.28,8-22.56a2.81,2.81,0,0,1,3.09-2.15c1.46.08,2.93,0,4.39,0,5.16,0,5,0,6.74,4.93,4.76,13.51,9.67,27,14.49,40.47,4.27,12,8.47,23.95,12.73,35.91.57,1.6.11,2.26-1.57,2.25-3.61,0-7.24.15-10.84-.08a3.76,3.76,0,0,1-2.67-2.05c-2.6-7.27-5-14.6-7.41-21.95-.72-2.22-1.89-3.07-4.3-3q-11.74.23-23.49,0c-2.42,0-3.57.89-4.28,3.08-2.35,7.27-4.83,14.5-7.22,21.75-.52,1.59-1.35,2.47-3.17,2.31C216,84.77,214.44,84.88,212.26,84.88Zm44.47-33.35L244.05,17.67l-1,.09L231.66,51.53Z"/><path d="M62.57,33.67c0-9.9,0-19.81,0-29.71,0-2,.53-2.82,2.62-2.71a73.74,73.74,0,0,0,8.26,0c2.29-.13,2.93.67,2.92,3-.09,18.6,0,37.2-.09,55.8-.05,8,3.88,13.32,10.88,16.22,9.34,3.87,18.53,3.22,26.91-2.85a16.49,16.49,0,0,0,7.28-14.07c-.06-18.26,0-36.51,0-54.77a3.38,3.38,0,0,1,5.32-3c.53.31.8,1.43.81,2.19.07,4.91,0,9.82,0,14.72,0,13.09.08,26.18,0,39.27-.08,7.83-2.37,15-8.2,20.51-3.67,3.5-8.51,4.87-13.25,6A46.91,46.91,0,0,1,74.72,81c-7.51-3.52-12-9.93-12.12-18.64C62.49,52.78,62.57,43.22,62.57,33.67Z"/><path d="M47.22,5.26l-2.63,7.22c-4.53-2-9.15-4.1-13.85-5.66C27.14,5.62,23,5.19,19.69,7a11.35,11.35,0,0,0-4.57,4.85,13.26,13.26,0,0,0,0,12.34c1.88,3.36,5.26,5.6,8.7,7.34,7,3.54,15.54,7.13,20.91,13,5.93,6.45,7.43,16.46,4.14,24.58A27.32,27.32,0,0,1,29.26,85a36.06,36.06,0,0,1-17.11-1c-2.87-.81-13.52-3.21-12-7.41.83-2.24,1.49-4.54,2.35-7.2,4.11,2.53,8.12,5.35,12.68,7a18.64,18.64,0,0,0,11.1.92,15.56,15.56,0,0,0,9.31-7.35,12.57,12.57,0,0,0,1.46-9.82C36,56.63,32.85,54,29.67,51.94c-4.34-2.83-9.07-5-13.56-7.61s-8.85-5.62-12-9.75A20.66,20.66,0,0,1,4.89,8.86,26.19,26.19,0,0,1,21.82.17c4.85-.57,9.75.33,14.43,1.56C37.07,1.94,47.36,4.85,47.22,5.26Z"/><path d="M95.7,23.71a4.93,4.93,0,0,1-5.18,5.17,5.16,5.16,0,1,1,.06-10.32A4.79,4.79,0,0,1,95.7,23.71Z"/><path d="M95.45,6.58a4.88,4.88,0,0,1-5.1,5.16,5,5,0,0,1-5.23-5.13,5.17,5.17,0,1,1,10.33,0Z"/></g></svg>